<svg style="transform: translate(10px, 10px)" xmlns="http://www.w3.org/2000/svg" >
  <g id="dot" fill="none" stroke-width="1.5" stroke="gray">
        <path
          class="st1"
          d="M405.6,379.7c-1.2-2.1-3.1-5.2-6.1-8.3c-3.8-4.1-6.5-5.4-10.9-8.7c-6.1-4.5-10-8.5-16.1-14.7
		c-6.5-6.7-5.9-7.1-11.4-12.3c-6.3-5.9-10.4-9.4-10.4-9.4c-3.8-3.2-5.2-4.2-6.9-6.6c-1.3-1.8-2.4-3.9-4.2-9.7
		c-2-6.6-1.7-7.7-3.5-14.4c-1.7-6.5-2-5.7-4.7-15.1c-1.3-4.6-1.7-6.5-3-10.7c-1.9-5.8-2.6-6.4-3.2-9.1c-1.2-5.2,0-10.4,1.1-14
		c0.9-3,1.5-3.4,1.9-6c0.6-3.7,0.9-4.2,1.3-5.2c0.3-0.6,0.8-1.5,1.6-2.4c-0.8-3.1-1.4-6.8-1.7-11c-0.4-5.1-0.1-9.6,0.4-13.2
		c0.8,0,1.5-0.1,2.3-0.1c1.3-0.4,3-0.9,5.2-0.9c4.4,0,7.6,1.9,9,2.8c0.1-1.9,0.1-4.7-0.3-8.1c-0.6-5-1.6-8.2-2.6-12
		c-1.5-5.7-2.3-9.9-2.8-15c-0.4-4.3-0.7-7.1-0.2-10.3c0.4-2.9,0.8-5.5,2.8-8.1c0.7-0.9,3.1-3.7,7.2-4.5c6-1.2,10.5,2.8,11.4,3.6
		c1.8,1.6,2.6,3.1,4.1,5.9c2.4,4.6,3.3,8.6,3.9,11.4c0.5,2.1,0.9,5.1,1.1,8.8c0.3,2,0.8,5,2.2,8.4c0.6,1.6,1.4,3.2,4.2,8.1
		c2.3,4.1,4,7.7,4.7,8.8c4,6.7,6.4,12.4,9.5,19.7c1.4,3.3,3.2,6.8,5,11.9c0.4-0.2,0.9-0.4,1.3-0.6c0-1.7-0.1-4.3-0.9-7.2
		c-0.9-3.8-2.3-6.4-2.9-7.6c-1.8-3.5-4.3-8.9-7.5-17.7c-2.4-6.7-4.2-12.1-5.4-15.8c-1.4-4.5-2.3-7.5-4.2-13.3
		c-1.3-4-2.4-5.9-3.4-9.8c-1-4.6-1.1-7.6,0.1-10.5c0.5-1.2,1.1-2.1,1.5-2.7c0.1-1,0.5-2.7,1.7-4.4c2.1-3,5.4-3.8,6.5-4.1
		c5-1.2,9,1.4,9.6,1.8c1.2,0.8,2,1.7,2.5,2.3c0.9,0.7,2.2,1.8,3.5,3.5c1.1,1.5,1.7,2.8,2.4,4.2c1.2,2.5,1,3.2,1.8,5.1
		c0.7,1.5,1.5,2.7,3.2,4.5c2.2,2.4,4.5,4.8,6.9,7.4c2.2-1,4.1-1.4,5.4-1.6c2.3-0.4,3.7-0.2,10.4,0c1.6,0.1,2.9,0.1,3.7,0.1
		c0.6-0.1,1.3-0.3,1.9-0.4c1.1-0.3,2.1-0.6,3.1-0.9c-0.7-1.9-1.6-5-1.2-8.9c0.1-1.4,0.4-4,2.1-6.9c0.7-1.2,1.4-2.1,1.9-2.7
		c0.2-0.5,0.6-1.3,1.4-2.1c1-0.9,2.1-1.1,2.9-1.3c2.1-0.4,3.8,0,4.9,0.3c0.8,1,2.1,2.6,3.8,4.4c3.6,4.1,5,5.2,6.9,7.8
		c1.1,1.5,2.7,3.7,4.2,6.8c2.3,3.2,4.6,6.5,6.9,9.7c1.8,3.4,3.9,7.1,6.5,10.9c1.6,2.4,3.3,4.6,4.9,6.6c0.8,2.4,1.9,5.7,3.1,9.6
		c2.2,6.9,3.3,10.3,3.7,12.9c0.6,3.8,0.4,5.1,1.4,10.4c0.3,1.3,0.6,3,1.3,5.8c1.9,7.9,3.1,10.2,4.4,15.5c1.7,6.6,2.3,11.9,2.5,13.7
		c0.4,3.6,0.3,7.8,0.3,16.2c0,4.6-0.1,7.4-0.1,10.9c-0.1,6.6-0.1,11.3-0.1,20.7c0,11.9,0,18.8,0.5,27.3c0.2,3.9,0.6,8.5,2.3,14.2
		c0.7,2.3,1.5,4.5,3.7,9.2c2.1,4.5,5,10.5,9.1,17.7C478.6,380,442.1,379.9,405.6,379.7z"
        ></path>
        <path
          class="st2"
          d="M437.8,171.3c-0.7-1.9-1.6-5-1.2-8.9c0.1-1.4,0.4-4,2.1-6.9c0.7-1.2,1.4-2.1,1.9-2.7c0.2-0.5,0.6-1.3,1.4-2.1
		c1-0.9,2.1-1.1,2.9-1.3c2.1-0.4,3.8,0,4.9,0.3c0.8,1,2.1,2.6,3.8,4.4c3.6,4.1,5,5.2,6.9,7.8c1.1,1.5,2.7,3.7,4.2,6.8
		c2.3,3.2,4.6,6.5,6.9,9.7c1.8,3.4,3.9,7.1,6.5,10.9c1.6,2.4,3.3,4.6,4.9,6.6c0.8,2.4,1.9,5.7,3.1,9.6c2.2,6.9,3.3,10.3,3.7,12.9
		c0.6,3.8,0.4,5.1,1.4,10.4c0.3,1.3,0.6,3,1.3,5.8c1.9,7.9,3.1,10.2,4.4,15.5c1.7,6.6,2.3,11.9,2.5,13.7c0.4,3.6,0.3,7.8,0.3,16.2
		c0,4.6-0.1,7.4-0.1,10.9c-0.1,6.6-0.1,11.3-0.1,20.7c0,11.9,0,18.8,0.5,27.3c0.2,3.9,0.6,8.5,2.3,14.2c0.7,2.3,1.5,4.5,3.7,9.2
		c2.1,4.5,5,10.5,9.1,17.7"
        ></path>
        <path
          stroke="#b600ef" stroke-width="1.5"
          d="M427.4,201.5c0.4,0.2,1.8,0.1,2.2,0.3c0.6,1.7,0.9,4.2,1.6,6.1c1,2.6,1.7,4.1,2.8,6.3
		c-0.1,0.9-0.5,2.4-0.5,3.3"
        ></path>
        <path
          stroke="#b600ef" stroke-width="1.5"
          d="M475,236.7c-0.7-0.9-1.6-2.5-2.2-4.5c-0.5-1.8-0.5-3.1-0.5-3.7c-0.1-5.9-1-11.8-1.3-17.7
		c-0.4-7.9-0.7-10.7-1.3-14.4c-0.5-2.7-0.9-4.5-1.2-5.9c-1.6-5.9-3.5-9.4-4.6-11.1c-1.7-2.8-2.9-3.8-3.9-4.4
		c-0.6-0.4-1.6-0.9-4.4-1.5c-3.5-0.7-13.7-2.2-17.7-2.2c-1,0.3-2,0.6-3.1,0.9c-0.7,0.2-1.3,0.3-1.9,0.4c-0.8,0-2.1-0.1-3.7-0.1
		c-6.7-0.2-8.1-0.4-10.4,0c-1.3,0.2-2.4,0.3-4.6,1.3"
        ></path>
        <path
          class="st2"
          d="M366.3,295.3c1.6-4.2,1.8-7.7,1.8-9.9c0-3.5-0.7-6.6-1.5-10.4c-0.5-2.3-0.7-2.5-1.4-5.7
		c-0.9-4-1.1-5.6-1.5-7.6c-0.9-3.9-2-6.6-3.7-10.2c-3.5-7.8-6.9-15.8-7.6-17.6c-2.1-5.1-4.7-12.6-6.2-22.7"
        ></path>
        <path
          class="st2"
          d="M444.1,232.9c-1.8-1.3-4.3-3.4-6.7-6.5c-0.8-1-2.2-3-4.6-8.3c-1.2-2.7-2.1-5-5.1-13.7
		c-2.1-6.1-2.7-7.8-4.2-11.9c-0.6-1.5-2-5.4-4.3-9.9c-0.8-1.7-2-3.8-3.9-6.2c-0.8-1-1.5-1.7-2-2.3"
        ></path>
        <path class="st2" d="M434,215.7"></path>
        <path
          class="st2"
          d="M405.6,379.7c-1.2-2.1-3.1-5.2-6.1-8.3c-3.8-4.1-6.5-5.4-10.9-8.7c-6.1-4.5-10-8.5-16.1-14.7
		c-6.5-6.7-5.9-7.1-11.4-12.3c-6.3-5.9-10.4-9.4-10.4-9.4c-3.8-3.2-5.2-4.2-6.9-6.6c-1.3-1.8-2.4-3.9-4.2-9.7
		c-2-6.6-1.7-7.7-3.5-14.4c-1.7-6.5-2-5.7-4.7-15.1c-1.3-4.6-1.7-6.5-3-10.7c-1.9-5.8-2.6-6.4-3.2-9.1c-1.2-5.2,0-10.4,1.1-14
		c0.9-3,1.5-3.4,1.9-6c0.6-3.7,0.9-4.2,1.3-5.2c0.3-0.6,0.8-1.5,1.6-2.4c-0.8-3.1-1.4-6.8-1.7-11c-0.4-5.1-0.1-9.6,0.4-13.2
		c0.8,0,1.5-0.1,2.3-0.1c1.3-0.4,3-0.9,5.2-0.9c4.4,0,7.6,1.9,9,2.8c0.1-1.9,0.1-4.7-0.3-8.1c-0.6-5-1.6-8.2-2.6-12
		c-1.5-5.7-2.3-9.9-2.8-15c-0.4-4.3-0.7-7.1-0.2-10.3c0.4-2.9,0.8-5.5,2.8-8.1c0.7-0.9,3.1-3.7,7.2-4.5c6-1.2,10.5,2.8,11.4,3.6
		c1.8,1.6,2.6,3.1,4.1,5.9c2.4,4.6,3.3,8.6,3.9,11.4c0.5,2.1,0.9,5.1,1.1,8.8c0.3,2,0.8,5,2.2,8.4c0.6,1.6,1.4,3.2,4.2,8.1
		c2.3,4.1,4,7.7,4.7,8.8c4,6.7,6.4,12.4,9.5,19.7c1.4,3.3,3.2,6.8,5,11.9c0.4-0.2,0.9-0.4,1.3-0.6c0-1.7-0.1-4.3-0.9-7.2
		c-0.9-3.8-2.3-6.4-2.9-7.6c-1.8-3.5-4.3-8.9-7.5-17.7c-2.4-6.7-4.2-12.1-5.4-15.8c-1.4-4.5-2.3-7.5-4.2-13.3
		c-1.3-4-2.4-5.9-3.4-9.8c-1-4.6-1.1-7.6,0.1-10.5c0.5-1.2,1.1-2.1,1.5-2.7c0.1-1,0.5-2.7,1.7-4.4c2.1-3,5.4-3.8,6.5-4.1
		c5-1.2,9,1.4,9.6,1.8c1.2,0.8,2,1.7,2.5,2.3c0.9,0.7,2.2,1.8,3.5,3.5c1.1,1.5,1.7,2.8,2.4,4.2c1.2,2.5,1,3.2,1.8,5.1
		c0.7,1.5,1.5,2.7,3.2,4.5c2.2,2.4,4.5,4.8,6.9,7.4"
        ></path>
      </g>
</svg>