<svg style="transform: translate(-5px, 0px)" xmlns="http://www.w3.org/2000/svg" >
  <g id="key-6" fill="none" stroke-width="1.5" stroke="gray">
        <path
          class="st1"
          d="M444.3,363.8c-6.3-13.2-7.2-15.9-8-19.5c-1.6-7.2-1.4-13.3-1.3-16.1c0.2-5.4,2.5-19.9,3.3-33.9
		c0.9-17.4,1.4-26.1,1.5-30.1c0.5-13,0.7-19.5,0.6-24.9c-0.1-6.5,0.1-13.1,0-19.6c0-1.1,0-1.9,0.1-2.9c0.4-4.5,2-6.6,4.3-13.5
		c0.8-2.4,1-3.4,1.1-3.9c0.6-2.8,0.6-5.2,0.5-6.8c0.6-2,1.5-4.9,2.5-8.5c0.9-3.1,1.3-4.9,1.7-6.5c0.6-3,1-7.4,0.1-13.2
		c0.2-1.4,0.5-3.6-0.1-6.2c-0.3-1.6-0.8-2.7-1.3-3.8c-1.3-3-1.9-4.5-3.4-5.7c-3.9-3.1-8.6-1.6-9-1.4c-1.6,0.5-2.5,1.3-3.9,2.6
		c-1.2,1-4.7,4.1-6.3,9.2c-0.6,1.8-0.4,2.2-0.8,6.3c-0.3,2.7-1.4,11.8-4.4,18.9c-0.9,2.2-1.8,3.6-2,4c-1.1,1.9-2,2.9-3.4,4.6
		c-1,1.3-2.3,3.2-3.8,5.6c0.5-7.1,1.7-12.7,2.8-16.5c1.1-3.9,2.2-6.6,6.3-19.4c1.9-6,2.3-7.3,2.4-9.5c0-1.8,0.1-9.3-5.8-14.6
		c-5.2-4.7-12.6-5.5-17.5-3.6c-2.8,1.1-5.3,3.2-5.4,3.3c-1.8,1.6-3,3.2-3.8,4.4c-0.4-2.3-1.2-5.7-3.1-9.5c-1.4-2.8-5-9.8-12.8-13.4
		c-4.6-2.1-8.6-2-16.6-1.8c-4.1,0.1-5.9,0.6-7.5,1.3c-4.4,2.2-6.6,6.5-7.1,7.6c-0.6,1.3-1,2.5-1.2,3.3c-0.9,6.3-1.6,13-2.1,20.1
		c-0.5,7.6-0.7,14.8-0.6,21.5c0.5,2.8,0.1,4.9-0.2,6c-0.5,1.5-0.9,3-2.3,3.6c-1,0.4-2.3,0.2-3.2-0.5c-0.8-0.6-1-1.6-1.1-1.8
		c0,0-0.4-1.6-5.8-20.3c-0.4-1.6-0.2-0.1-6.8-16.8c-0.8-2.1-1.7-4.5-2.5-7.9c-0.3-1.3-0.6-3-1-9.1c-0.5-8.1-0.5-12.4-1.8-17.8
		c-0.2-1-0.6-2.4-1.4-4.1c-0.3-0.7-1.8-4-4.3-6.4c-2.9-2.7-8.7-5.6-13.9-3.6c-5.1,2-6.8,7.9-7.7,11.3c-0.9,3.2-0.7,7.1-0.4,15
		c0.2,4,0.4,7.6,1.1,12.4c1,6.1,1.5,5.8,2.1,10.4c0.8,6.5-0.3,7.5,0.3,14.8c0.3,3,0.4,1.7,1.8,10.9c1.4,8.9,1.3,10.1,2.3,14.7
		c0.7,3.1,1,3.9,2,8c0.8,3.7,1.4,6.7,1.7,8.8c-0.1,1.3-0.2,3.1-0.3,5.4c-0.1,4.4,0,9.2,0.6,16.3c1.1,11.8,2,11.9,2,18
		c0,5.2-0.7,7-1.4,12.6c-0.7,6.2-1.3,22.4,3.3,37.6c1.2,3.9,1.5,6.1,3.4,13.6c1.1,4.1,1,4.5,2.5,10.5c1.9,7.7,2.9,11.8,4.6,16.4
		c1.5,4.1,1.9,4,6.3,13.1c0.9,1.8,4.9,10,8.9,19.5c1.8,4.3,4.3,10.3,6.9,17.5c38.6-0.1,77.1-0.1,115.7-0.2
		C448.9,373.5,446.3,368,444.3,363.8z M385.1,164.7c-1.8,5.1-2.6,7.1-4.1,9.3c-1.2,1.8-2.4,3.2-3.2,4.1c-1.4-4.8-1.4-12.5-0.9-20.4
		c1,0,3.7-0.2,5.3-0.6c2-0.5,4.7-1.8,6.5-3.5C387.3,158.5,385.7,162.9,385.1,164.7z"
        ></path>
        <path
          class="st2"
          d="M336.4,380c-2.7-7.3-5.1-13.2-6.9-17.5c-4.1-9.5-8-17.7-8.9-19.5c-4.4-9.1-4.8-9-6.3-13.1
		c-1.7-4.6-2.7-8.7-4.6-16.5c-1.5-6-1.4-6.3-2.5-10.5c-2-7.5-2.2-9.7-3.4-13.6c-4.7-15.2-4.1-31.4-3.3-37.6
		c0.7-5.6,1.4-7.4,1.4-12.6c0-6.1-0.9-6.2-2-18c-0.7-7.1-0.8-11.9-0.6-16.3c0.1-2.2,0.2-4.1,0.3-5.4"
        ></path>
        <path
          class="st2"
          d="M337.8,181.2c1.4-0.6,1.9-2.1,2.3-3.6c0.3-1.1,0.8-3.2,0.2-6c-0.1-6.7,0.1-13.9,0.6-21.5
		c0.5-7.1,1.2-13.9,2.1-20.1c0.2-0.8,0.6-2,1.2-3.3c0.6-1.1,2.7-5.4,7.1-7.6c1.6-0.8,3.3-1.3,7.5-1.4c8-0.2,12-0.3,16.6,1.8
		c7.8,3.6,11.3,10.6,12.7,13.4c1.9,3.8,2.7,7.2,3.1,9.5c0.8-1.2,2-2.8,3.8-4.4c0.1-0.1,2.6-2.2,5.4-3.3c5-1.9,12.3-1.1,17.5,3.6
		c5.9,5.3,5.8,12.8,5.8,14.6c0,2.2-0.4,3.5-2.3,9.5c-4.1,12.7-5.2,15.4-6.3,19.4c-1.1,3.8-2.3,9.4-2.8,16.5c1.5-2.4,2.8-4.3,3.8-5.6
		c1.3-1.8,2.2-2.7,3.4-4.6c0.3-0.4,1.1-1.9,2-4c3-7.1,4.1-16.2,4.4-18.9c0.4-4.1,0.3-4.5,0.8-6.3c1.6-5.1,5.1-8.2,6.3-9.2
		c1.5-1.3,2.4-2.1,3.9-2.6c0.4-0.1,5.1-1.7,9,1.4c1.5,1.2,2.1,2.7,3.4,5.7c0.5,1.1,0.9,2.2,1.3,3.8c0.5,2.6,0.3,4.8,0.1,6.2
		c1,5.8,0.5,10.3-0.1,13.2c-0.3,1.7-0.8,3.4-1.7,6.5c-1,3.5-1.9,6.5-2.5,8.5c0.1,1.6,0.1,4-0.5,6.8c-0.1,0.5-0.3,1.6-1.1,3.9
		c-2.2,6.9-3.8,9-4.3,13.5c-0.1,1.1-0.1,1.8-0.1,2.9c0.1,6.5-0.1,13.1,0,19.6c0.1,5.4-0.1,11.9-0.6,24.9c-0.1,4-0.6,12.7-1.5,30.1
		c-0.7,14.1-3,28.5-3.3,33.9c-0.1,2.8-0.3,8.9,1.3,16.1c0.8,3.6,1.8,6.3,8,19.5c2,4.2,4.6,9.6,7.7,16"
        ></path>
        <path
          stroke="#b600ef" stroke-width="1.5"
          d="M299.4,199.4c-0.3-2-0.9-5.1-1.7-8.8c-0.9-4.2-1.2-4.9-2-8c-1.1-4.7-1-5.8-2.3-14.7c-1.4-9.3-1.5-7.9-1.8-10.9
		c-0.6-7.4,0.5-8.3-0.3-14.8c-0.6-4.6-1.2-4.3-2.1-10.4c-0.8-4.8-0.9-8.4-1.1-12.4c-0.4-7.9-0.5-11.8,0.4-15c1-3.4,2.6-9.3,7.7-11.3
		c5.2-2.1,11,0.8,13.9,3.6c2.5,2.4,4,5.6,4.3,6.4c0.7,1.6,1.1,3,1.4,4.1c1.3,5.4,1.3,9.7,1.8,17.8c0.4,6.1,0.7,7.7,1,9.1
		c0.7,3.4,1.7,5.8,2.5,7.9c6.5,16.8,6.3,15.2,6.8,16.8c5.4,18.6,5.8,20.3,5.8,20.3c0.1,0.3,0.3,1.2,1.1,1.8c0.8,0.7,2.2,0.9,3.2,0.5
		"
        ></path>
        <path
          class="st2"
          d="M391.4,142.5c-0.4,3.2-1.4,7.3-2.6,11.2c-1.4,4.9-3.1,9.3-3.7,11.1c-1.8,5.1-2.6,7.1-4.1,9.4
		c-1.2,1.8-2.4,3.2-3.2,4.1c-1.5-4.8-1.4-12.5-0.9-20.4c0.6-9,1.7-18.1,1.8-23.1"
        ></path>
        <path
          class="st2"
          d="M377,157.7c1,0,3.7-0.2,5.3-0.6c2-0.5,4.7-1.8,6.5-3.5"
        ></path>
        <path class="st2" d="M413.6,206c-0.5-0.8-1.7-4.3-1.1-8.5">
		</path>
      </g>
</svg>