<svg style="transform: translate(0px, -5px)" xmlns="http://www.w3.org/2000/svg" >
  <g id="key-7" fill="none" stroke-width="1.5" stroke="gray">
        <path
          class="st1"
          d="M363.9,380.3c-1.6-3-4.1-7.4-7.2-12.6c-5.9-9.9-5.2-8.3-7.1-11.6c-3.8-6.7-4.7-9.1-7.8-12.9
		c-1-1.2-0.6-0.5-6-5.9c-5.8-5.7-6.7-6.9-7.3-7.7c-1.1-1.4-1.8-2.6-4.8-8.7c-2.5-5.1-3.8-7.6-5.1-10.5c-5.6-12.1-6.1-15.4-10.6-24.2
		c-0.4-0.8-2.3-3.8-4.4-8.2c-0.1-0.3-0.5-0.9-0.9-1.9c-0.5-1.3-0.6-2.5-0.7-3.2c-0.4-5.2,0.2-11.9,0.2-11.9
		c0.5-5.7,0.9-9.9,0.7-15.2c0-0.7-0.1-2.2-0.4-5.1c-0.5-6.4-0.8-12.8-1.3-19.2c-0.1-0.6-0.2-1.9,0.1-3.5c0.1-0.5,0.5-2.7,1.9-5.3
		c0.7-1.1,1.3-2,2.7-3.4c1.4-1.6,3.5-3.7,6.1-6c0.5-0.9,1.3-2.1,2.4-3.3c0.9-0.9,1.7-1.7,2.5-2.2c0.4-1.4,0.8-2.5,1.2-3.4
		c0.8-1.8,1.7-3,2.1-3.4c0.3-0.5,0.6-0.8,0.9-1.1c-0.7-2.9-1.7-7-2.7-11.9c-1-5.3-2.2-11.4-2.7-19.2c-0.3-4.4,0-2.9-0.3-15.2
		c-0.2-6.6-0.4-10.1-0.4-16.6c0-6,0.1-9.4,1.1-13.7c0.8-3.2,1.8-5.8,3.3-8.3c1.5-2.4,2.7-4.4,5.3-5.6c3-1.5,6.6-1.4,9.3,0
		c1.4,0.7,2.3,1.6,3.7,3c2.3,2.3,3.5,4.6,3.7,5c1,2,1.4,3.8,1.8,5.2c0.4,1.8,0.6,3.3,0.7,5.4c0.2,3.8,0.2,5.5,0.2,10.4
		c0.1,6.2,0.3,7.5,0.4,8.3c0.4,2.6,1.1,4.4,1.9,6.8c1.4,4.2,2.2,5.2,3.8,9.5c1.2,3.2,1.9,5.8,2.3,7.2c0.8,2.9,2.1,7.7,2.8,13.3
		c0.2,1.4,0.4,4.2,1.3,7.9c0.2,1,0.4,1.7,0.6,2.3c1.2,0,2.4-0.1,3.6-0.1c0.6-0.9,1.4-2.2,2-3.9c0.6-1.7,0.8-3.3,0.8-4.4
		c0.9-5.2,1.6-10.9,2-17.2c0.3-4.5,0.3-8.7,0.2-12.7c-0.2-2-0.3-4.8,0.2-8.2c0.3-1.5,0.7-3.8,1.9-6.3c0.7-1.4,2.9-5.9,8.2-8.7
		c5.9-3.2,11.7-2.1,13.5-1.7c1.1,0.2,6.1,1.4,10.5,5.7c2.2,2.2,3.5,4.4,4.3,5.9c0.1,0.6,0.3,1.2,0.4,1.8c0.1,4.2,0.2,8.5,0.2,12.7
		c1.9-1.8,3.7-3.2,5.1-4.1c1.9-1.3,3.2-2.1,5.1-2.7c1.7-0.5,3.1-0.5,4.8-0.4c2.3,0,5.7,0.1,9.7,1.8c1.8,0.8,3.9,1.7,5.7,3.9
		c1.2,1.4,1.8,2.8,2.2,3.8c0.5-0.7,1.2-1.7,2.3-2.6c1.2-1.1,3.1-2.8,5.8-3c2.7-0.2,4.7,1.2,5.5,1.7c2.9,2.1,4.1,5.3,4.9,7.5
		c0.3,0.7,0.4,1.3,0.5,1.7c0.7,0.7,1.7,1.7,2.7,3c1,1.3,1.7,2.6,2.3,4c0.7,1.5,2.2,5.3,3.3,11.7c0.3,2,0.7,4.7,0.9,7.9
		c0.5,1.3,0.9,3,1.2,5.1c0.2,2.1,0.1,3.8,0,5.2c-1.4,8.9-2.9,14.2-4,17.5c-1.1,3.1-1.6,4.6-2.6,7.7c-1.2,3.8-1.5,5-1.7,6
		c-0.7,3.2-0.7,5.4-0.8,7.7c-0.1,2.7-0.4,8.9-2.1,15.4c-1.1,4.3-2.1,5.8-2.7,10.5c-0.2,1.6-0.3,3-0.4,5.7c-0.3,5.5-0.1,7.8-0.2,12.1
		c0,1.8-0.1,5.8-0.7,10.5c-0.8,6.7-1.6,8-2.5,14.8c-0.3,2.2-0.7,6-0.8,10.4c-0.2,9.5,1,16.7,1.4,18.5c1.3,6.8,3.2,11.9,7.1,20.7
		c3.6,8.3,8.6,19,14.9,31.5C436,380.2,399.9,380.2,363.9,380.3z"
        ></path>
        <path
          class="st2"
          d="M363.9,380.3c-1.6-3-4.1-7.4-7.2-12.6c-5.9-9.9-5.2-8.3-7.1-11.6c-3.8-6.7-4.7-9.1-7.8-12.9
		c-1-1.2-0.6-0.5-6-5.9c-5.8-5.7-6.7-6.9-7.3-7.7c-1.1-1.4-1.8-2.6-4.8-8.7c-2.5-5.1-3.8-7.6-5.1-10.5c-5.6-12.1-6.1-15.4-10.6-24.2
		c-0.4-0.8-2.3-3.8-4.4-8.2c-0.1-0.3-0.5-0.9-0.9-1.9c-0.5-1.3-0.6-2.5-0.7-3.2c-0.4-5.2,0.2-11.9,0.2-11.9
		c0.5-5.7,0.9-9.9,0.7-15.2c0-0.7-0.1-2.2-0.4-5.1c-0.5-6.4-0.8-12.8-1.3-19.2c-0.1-0.6-0.2-1.9,0.1-3.5c0.1-0.5,0.5-2.7,1.9-5.3
		c0.7-1.1,1.3-2,2.7-3.4c1.4-1.6,3.5-3.7,6.1-6c0.5-0.9,1.3-2.1,2.4-3.3c0.9-0.9,1.7-1.7,2.5-2.2c0.4-1.4,0.8-2.5,1.2-3.4
		c0.8-1.8,1.7-3,2.1-3.4c0.3-0.5,0.6-0.8,0.9-1.1"
        ></path>
        <path
          class="st2"
          d="M358.8,183.5c0.7,0,1.3-0.1,2-0.1c0.6-0.9,1.4-2.2,2-3.9c0.6-1.7,0.8-3.3,0.8-4.4c0.9-5.2,1.6-10.9,2-17.2
		c0.3-4.5,0.3-8.7,0.2-12.7c-0.2-2-0.3-4.8,0.2-8.2c0.3-1.5,0.7-3.8,1.9-6.3c0.7-1.4,2.9-5.9,8.2-8.7c5.9-3.2,11.7-2.1,13.5-1.7
		c1.1,0.2,6.1,1.4,10.5,5.7c2.2,2.2,3.5,4.4,4.3,5.9c0.1,0.6,0.3,1.2,0.4,1.8c0.1,4.2,0.2,8.5,0.2,12.7c1.9-1.8,3.7-3.2,5.1-4.1
		c1.9-1.3,3.2-2.1,5.1-2.7c1.7-0.5,3.1-0.5,4.8-0.4c2.3,0,5.7,0.1,9.7,1.8c1.8,0.8,3.9,1.7,5.7,3.9c1.2,1.4,1.8,2.8,2.2,3.8
		c0.5-0.7,1.2-1.7,2.3-2.6c1.2-1.1,3.1-2.8,5.8-3c2.7-0.2,4.7,1.2,5.5,1.7c2.9,2.1,4.1,5.3,4.9,7.5c0.3,0.7,0.4,1.3,0.5,1.7
		c0.7,0.7,1.7,1.7,2.7,3c1,1.3,1.7,2.6,2.3,4c0.7,1.5,2.2,5.3,3.3,11.7c0.3,2,0.7,4.7,0.9,7.9c0.5,1.3,0.9,3,1.2,5.1
		c0.2,2.1,0.1,3.8,0,5.2c-1.4,8.9-2.9,14.2-4,17.5c-1.1,3.1-1.6,4.6-2.6,7.7c-1.2,3.8-1.5,5-1.7,6c-0.7,3.2-0.7,5.4-0.8,7.7
		c-0.1,2.7-0.4,8.9-2.1,15.4c-1.1,4.3-2.1,5.8-2.7,10.5c-0.2,1.6-0.3,3-0.4,5.7c-0.3,5.5-0.1,7.8-0.2,12.1c0,1.8-0.1,5.8-0.7,10.5
		c-0.8,6.7-1.6,8-2.5,14.8c-0.3,2.2-0.7,6-0.8,10.4c-0.2,9.5,1,16.7,1.4,18.5c1.3,6.8,3.2,11.9,7.1,20.7c3.6,8.3,8.6,19,14.9,31.5"
        ></path>
        <path
          class="st2"
          d="M316.5,248.5c1.1-1.7,2.7-4.2,3.9-7.6c0.6-1.6,1.3-4.1,1.9-10.1c0.4-3.6,0.5-5.9,0.6-11.7
		c0.2-6,0.3-9.5,0.4-11.8"
        ></path>
        <path
          stroke="#b600ef" stroke-width="1.5"
          d="M323.3,207.3c0.1-3,0-3.9-0.1-5.2c-0.2-3.1-1.1-7.8-2.2-12.4c-0.7-2.9-1.7-7-2.7-11.9
		c-1-5.3-2.2-11.4-2.7-19.2c-0.3-4.4,0-2.9-0.3-15.2c-0.2-6.6-0.4-10.1-0.4-16.6c0-6,0.1-9.4,1.1-13.7c0.8-3.2,1.8-5.8,3.3-8.3
		c1.5-2.4,2.7-4.4,5.3-5.6c3-1.5,6.6-1.4,9.3,0c1.4,0.7,2.3,1.6,3.7,3c2.3,2.3,3.5,4.6,3.7,5c1,2,1.4,3.8,1.8,5.2
		c0.4,1.8,0.6,3.3,0.7,5.4c0.2,3.8,0.2,5.5,0.2,10.4c0.1,6.2,0.3,7.5,0.4,8.3c0.4,2.6,1.1,4.4,1.9,6.8c1.4,4.2,2.2,5.2,3.8,9.5
		c1.2,3.2,1.9,5.8,2.3,7.2c0.8,2.9,2.1,7.7,2.8,13.3c0.2,1.4,0.4,4.2,1.3,7.9c0.2,1,0.4,1.7,0.6,2.3c0.6,0,1.1,0,1.7-0.1"
        ></path>
        <path
          class="st2"
          d="M404.2,188.3c-2.7-4.3-1.9-10.8-1.7-13.8c0.7-9.4,1.5-19,2.6-28"
        ></path>
        <path
          class="st2"
          d="M432.5,201.1c3.6-17.9,5.9-31.5,6.7-37.2c0.2-1.9,0.6-5.1,0.1-9.1c-0.4-2.8-1-4.4-1.6-5.9"
        ></path>
        <path
          class="st2"
          d="M438.6,168.1c0.5,3.6,0.6,7.5,0.7,10.1c0,0.3-3.4,7.8-4.2,10.1"
        ></path>
      </g>
</svg>