<svg style="transform: translate(-40px, 10px)" xmlns="http://www.w3.org/2000/svg" >
  <g id="c" fill="none" stroke-width="1.5" stroke="gray">
        <path
          class="st1"
          d="M238.1,380.3c2.7-4.7,18.2-31.7,33.7-42.8c15.5-11.1,16.4-14.8,25-20.4c8.6-5.5,14.6-10.4,15.3-28.8
		c0.7-18.4,5.8-30.1,4.9-33c0.9-1.7,1.3-10.1,0.6-11.1c0.4-1.2,0.5-6-0.1-10.6c-0.6-4.6,0.4-9.1-0.4-10.6c0.2-2.4,6-18.4,4.7-24.5
		c-6.9-5.5-17.6,0.5-24.2,9.1c-6.6,8.6-12.6,23.4-9.5,34.4c-3.4,2.3-3.5,10.4-4.7,14.7c-1.2,4.3-2.6,8.1-1.7,8.8
		c-1.6,0.4-5.6,6.9-6.5,9.5c-2-1.5-17.3-4.7-24.8-1.9c0.7-6.7-0.4-22.4,11.3-52.7c11.7-30.3,13.5-39.7,13-48.5
		c-0.6-8.8-1.9-13.5-6-17.4c-4.1-3.9-12.2-4.2-14.9,2.8c-4.1,3.2-4.8,20.3-5.4,21.9c-2.9-1.5-5.6-2.6-10.1-2.9
		c-4.5-0.3-7.9,3.2-8.6,3.2s-4.3-2.1-7.9-1.9c-3.6,0.1-7.5-2.9-12.6-2.8c5-2.8,14.3-12.9,10.3-19.5c1.5-6.3-8.6-6.7-11.4-5.6
		c-2.8,1.1-7.5,4.9-8.8,6.8c-1.9-0.4-5.6-1-17,8.7c-2.8-5.8-7.3-9.1-11.2-10.2c-3.9-1.1-8.8-1-9.4,2.3c-0.6,3.3,0.2,9.4-2.6,17.4
		c-2.8,8.1-3.6,10.7-5.4,16.7c-1.7,6-2,13-3.7,18.2s-1.9,11.4-1.9,11.4s-4.3,1.4-6.8,10.7c-2.5,9.3-0.7,12.4-5,22.6
		c-4.3,10.2-6.4,15.7-6.6,24.2c-0.2,8.5,9.1,22.4,10.3,26.2c1.2,3.8,6.6,23.3,7.9,25.3c1.3,2,5.8,11,0.4,29.8
		c-5.4,18.7-7.6,20.5-7.6,20.5H238.1z"
        ></path>
        <path
          class="st2"
          d="M238.1,380.3c2.7-4.7,18.2-31.7,33.7-42.8c15.5-11.1,16.4-14.8,25-20.4c8.6-5.5,14.6-10.4,15.3-28.8
		c0.7-18.4,5.8-30.1,4.9-33c0.9-1.7,1.3-10.1,0.6-11.1c0.4-1.2,0.5-6-0.1-10.6c-0.6-4.6,0.4-9.1-0.4-10.6c0.2-2.4,6-18.4,4.7-24.5
		c-6.9-5.5-17.6,0.5-24.2,9.1c-6.6,8.6-12.6,23.4-9.5,34.4c-3.4,2.3-3.5,10.4-4.7,14.7c-1.2,4.3-2.6,8.1-1.7,8.8
		c-1.6,0.4-5.6,6.9-6.5,9.5c-2-1.5-17.3-4.7-24.8-1.9c0.7-6.7-0.4-22.4,11.3-52.7c11.7-30.3,13.5-39.7,13-48.5
		c-0.6-8.8-1.9-13.5-6-17.4c-4.1-3.9-12.2-4.2-14.9,2.8c-4.1,3.2-4.7,20.2-5.5,21.8c-2.9-1.5-5.5-2.6-10-2.9
		c-4.5-0.3-7.9,3.2-8.6,3.2s-4.3-2.1-7.9-1.9c-3.6,0.1-7.5-2.9-12.6-2.8c5-2.8,14.3-12.9,10.3-19.5c1.5-6.3-8.6-6.7-11.4-5.6
		c-2.8,1.1-7.5,4.9-8.8,6.8c-1.9-0.4-5.6-1-17,8.7c-2.8-5.8-7.3-9.1-11.2-10.2c-3.9-1.1-8.8-1-9.4,2.3c-0.6,3.3,0.2,9.4-2.6,17.4
		c-2.8,8.1-3.6,10.7-5.4,16.7c-1.7,6-2,13-3.7,18.2s-1.9,11.4-1.9,11.4s-4.3,1.4-6.8,10.7c-2.5,9.3-0.7,12.4-5,22.6
		c-4.3,10.2-6.4,15.7-6.6,24.2c-0.2,8.5,9.1,22.4,10.3,26.2c1.2,3.8,6.6,23.3,7.9,25.3c1.3,2,5.8,11,0.4,29.8
		c-5.4,18.7-7.6,20.5-7.6,20.5"
        ></path>
        <path
          stroke="#b600ef" stroke-width="1.5"
          d="M246.5,178.3c-2.9-1.5-3.8-1.8-8.4-2.1c-4.5-0.3-7.9,3.2-8.6,3.2s-4.3-2.1-7.9-1.9c-3.6,0.1-7.5-2.9-12.6-2.8
		c-5.1,0.1-11.3-2.8-20.2,17.3c-8.9,20.1-9.3,34.7-12.9,42c-3.6,7.3-9.4,10.4-9.4,10.4"
        ></path>
        <path
          class="st2"
          d="M141.8,256.7c2.2-3.8,4.2-10.3,5.1-14.7s0.4-16.8,0.8-21"
        ></path>
        <path
          stroke="#b600ef" stroke-width="1.5"
          d="M217.5,230.4c0.5-4.2,2.8-10.9,5.4-14.1s7.1-14,7.3-19.1"
        ></path>
        <path
          class="st2"
          d="M154,189.5c1-3.2,9.3-7.5,11.1-9.2c1.7-1.7,9.8-11.7,17.1-15.2"
        ></path>
        <path
          class="st2"
          d="M205.6,247.6c3-2.1,11.2-9.4,15.3-22c4.2-12.5,10-20.2,11.4-22.8c1.5-2.7,5.9-10.7,9.2-13.3s7-9.9,7-12.5"
        ></path>
      </g>
</svg>