<svg style="transform: translate(-35px, 5px)" xmlns="http://www.w3.org/2000/svg" >
  <g id="g" fill="none" stroke-width="1.5" stroke="gray">
        <path
          class="st1"
          d="M295.2,214.3c-3.2-3.4-13.5,0.5-13.9,0.6c0.2-0.5,5.7-16.2,9.7-23c4.1-6.9,11.4-21.3,7.8-35.5
		c-3.6-14.2-15.8-7.4-20.1-2.3c-4.3,5.1-9.7,21.5-12.6,26c-2.9,4.5-14.4,19.6-20.7,28.8c-6.3,9.2-14.6,24.3-16.9,25.9
		c-2.4,1.6-9,1.3-10.3-3.2c-1.3-4.5-1.6-10.6,1.1-18.8c2.7-8.1,5.2-16.8,5-17.7c-0.2-0.9,6.5-2.3,11.4-15c6.4-8.3,7.3-22.5,3-23.9
		c-0.2-3.2-10.6-12.3-19.4-0.4c-1.3,1.3-3.4,4.5-3.4,4.5s-0.6-5.7-3.2-8.7c-2.6-3-13.1-3.4-16.2,3c-4.4,0.7-12,7.6-12.9,8.9
		c-1.1-3.1-4.3-5.2-6-6.5c-1.3-3-5.3-4.2-7.1-3.5c-1.8,0.7-5.7,6.4-6.9,9c-2.5,1.8-10.4,12.2-15.3,21.7c-4.9,9.5-7.3,18-8.8,19.9
		c-1.5,1.9-4.3,5.4-6.8,23.8s-0.9,25.8-4.6,36.3c-3.7,10.5-2,24.4-1.7,36.2c0.3,11.7,0.9,30.1-0.7,40.3c-1.5,10.2-7.8,31.6-13.9,40
		h107.9c4.5-4.8,15.8-15.5,20-19.3c4.2-3.9,20.3-26.1,27.7-32.9c7.4-6.8,11.9-11.9,13.2-28.4c1.3-16.5,6.8-20.6,8.7-30.3
		c2.9-6.8,3.2-14.3,2.2-22.5c-1-8.2,0.8-9-0.4-9.8C291.9,234.4,296.7,223.5,295.2,214.3z M259.3,259.2c-0.4,2.9-2.2,7.8-2.9,9.6
		c-0.7,1.8-3.7,4.4-2.5,8.1l-3.2,2.2c0-4.4,4.4-26,9.4-25.3C265,254.6,259.7,256.3,259.3,259.2z"
        ></path>
        <path
          class="st2"
          d="M219.6,380.8c4.5-4.8,15.8-15.5,20-19.3c4.2-3.9,20.3-26.1,27.7-32.9c7.4-6.8,11.9-11.9,13.2-28.4
		s6.8-20.6,8.7-30.3c2.9-6.8,3.1-14.3,2.2-22.5c-1-8.2,0.8-9-0.4-9.8c0.9-3.2,5.7-14,4.1-23.2c-3.3-3.4-13.9,0.6-13.9,0.6
		s5.6-16.1,9.7-23s11.4-21.3,7.8-35.5c-3.6-14.2-15.8-7.4-20.1-2.3c-4.3,5-9.7,21.4-12.6,26s-14.4,19.6-20.7,28.8
		c-6.3,9.2-14.6,24.3-16.9,26c-2.3,1.6-9,1.3-10.3-3.2c-1.3-4.5-1.6-10.6,1.1-18.7c2.7-8.1,5.2-16.8,5-17.7
		c-0.2-0.9,6.5-2.3,11.4-15c6.4-8.3,7.3-22.5,3-23.9c-0.2-3.2-10.6-12.3-19.4-0.4c-1.3,1.3-3.4,4.4-3.4,4.4s-0.6-5.6-3.2-8.7
		c-2.6-3-13.1-3.4-16.2,3c-4.4,0.7-12,7.6-12.9,8.9c-1.1-3.1-4.3-5.2-6-6.5c-1.3-3-5.3-4.2-7.1-3.5c-1.8,0.7-5.6,6.4-6.9,9
		c-2.5,1.8-10.4,12.2-15.3,21.7c-4.9,9.5-7.3,18-8.8,19.9c-1.5,1.9-4.3,5.4-6.8,23.8c-2.6,18.4-0.9,25.8-4.6,36.3
		c-3.7,10.5-2,24.4-1.7,36.2c0.3,11.7,0.9,30.1-0.7,40.3c-1.5,10.2-7.8,31.6-13.9,40"
        ></path>
        <path
          class="st2"
          d="M145.9,244c1.4-11.1,3.3-42.7,6.6-51.3c3.3-8.6,8.1-7.2,15.3-15.3c7.2-8.1,9.9-5.1,15.8-13.9"
        ></path>
        <path
          class="st2"
          d="M175.7,238.3c2.7-7.5,7.3-32.3,8.9-40.4c1.6-8.1,5.5-18.6,13.6-21.8c5.9-4.8,10.8-7.2,12.9-8
		c0.9-2.5,4.8-7.8,4.8-7.8"
        ></path>
        <path
          class="st2"
          d="M250.6,279.2c0-5.4,4.4-26,9.4-25.3s-0.4,2.4-0.7,5.3c-0.4,3-2.2,7.8-2.9,9.6c-0.7,1.8-3.1,4-2.5,8.1
		L250.6,279.2z"
        ></path>
        <path
          stroke="#b600ef" stroke-width="1.5"
          d="M257.3,255.7c3.5-5,21.1-33.2,23.9-40.8c2.8-7.6,5.6-16.1,9.7-23s11.4-21.3,7.8-35.5
		c-3.6-14.2-15.8-7.4-20.1-2.3c-4.3,5-9.7,21.4-12.6,26s-14.4,19.6-20.7,28.8c-6.3,9.2-14.6,24.3-16.9,26"
        ></path>
      </g>
</svg>