<svg style="transform: translate(0px, 5px)" xmlns="http://www.w3.org/2000/svg" >
  <g id="i" fill="none" stroke-width="1.5" stroke="gray">
        <path
          class="st1"
          d="M380.3,379.8c-1.1-2.4-2.8-6.7-5.2-9.8c-2.5-3.1-5-5.5-7.1-7.1c0,0-3.6-3.3-10.3-9.9c-3.5-3.4-3.1-3.2-10.7-11
		c-10.1-10.3-9.6-9.5-13.1-13.3c-4.2-4.6-5.3-6.2-9.1-9.9c-4.9-4.7-6.5-6.2-6.5-6.2c-2.9-2.7-3.5-3-4.5-4.4
		c-2.3-3.1-3.2-6.2-3.6-7.8c-0.7-2.9-0.5-3.9-0.8-8.5c-0.1-0.7-0.4-4.9-1.2-9.5c-0.8-4.3-1.8-10.1-4.4-15.7c-0.4-1-1.3-2.8-2-5.5
		c-0.5-2.2-0.7-4.1-0.8-5.4c-0.9-1.3-1.3-2.5-1.6-3.2c-0.2-0.7-0.2-0.9-0.8-4.3c-0.3-2.1-0.3-2-0.4-2.6c-0.1-0.7-0.4-2.6-0.4-4.1
		c-0.1-1.9,0.2-3.3,0.5-5.1c0.8-5.1,1.3-9.5,1.4-12c0.1-2,0.2-3.7,0.2-5c-1-3.4-1.9-6.2-2.6-8.1c-1-2.9-1.7-4.7-2.1-7.4
		c-0.2-1.8-0.2-3.2-0.2-4.3c0.4-0.3,0.8-0.6,1.4-0.9c0.4-0.2,0.8-0.4,1.1-0.5c0.7-0.5,1.6-1,2.9-1.5c2.7-1,5.1-0.7,6.1-0.6
		c3.9,0.4,6.7,2.4,8.7,3.9c4.7,3.4,7.1,7.5,8.9,10.5c2,3.5,3.1,6.4,4.1,9.4c1,2.9,1.8,5.7,2.3,8.7c0.5,3.3,0.5,5,0.3,6.2
		c-0.2,2-0.7,3.5-1.2,4.6c0.5,0.6,1.2,1.4,2,2.6c1,1.6,1.3,2.5,3,7.1c1.2,3.3,1.2,3.3,2,5.4c0.7,1.9,1.2,3.5,1.6,4.8
		c0-2.7-0.1-6.5-0.2-10.9c-0.1-4.7-0.3-9.6-0.7-14.8c-0.4-4.4-0.7-6.5-2.7-19.4c-0.5-3.6-1.4-9.4-2.5-16.8c-0.2-0.8-0.4-2-0.4-3.4
		c-0.1-2.5,0.5-4.5,1-6.2c1.5-4.8,3.4-9.3,4.4-11.6c0-1.3,0.2-3.1,0.7-5.1c0.2-0.8,0.4-2,1-3.3c0.5-1.4,1.5-3.4,3.2-5.5
		c0.4-0.9,1-2,1.8-3.2c1-1.4,2.4-3.4,5-4.9c3.6-2,7.1-1.7,8.4-1.5c1.7,0.2,3.1,0.6,4.1,1c-0.7-4.5-1-8.3-1.1-11.1
		c-0.1-3.8-0.2-6.7,0.5-10.4c0.5-2.5,1-5.2,2.8-8.2c1.1-1.9,2.6-4.3,5.5-5.8c2.9-1.4,5.7-1.1,6.7-1c4.8,0.6,7.7,3.7,8.7,4.8
		c2.5,2.7,3.4,5.6,3.9,7.1c0.6,1.9,0.8,3.5,0.9,4.7c0.4,1.7,0.8,3.6,1.1,5.5c0.5,3.2,0.7,6.1,0.8,8.8c0.6,2.2,1.2,4.3,1.8,6.5
		c0.9,3.3,1.8,6.6,2.7,9.9c1.2,3.8,2.4,7.8,3.5,12c0.6,2.3,1.1,4.6,1.6,6.8c1.3,5.7,2.1,10.2,2.6,13.3c0.3,1.8,0.8,5.2,1.8,9.8
		c0.4,1.7,0.7,3,1,4c0.2-2.8,0.4-6.8,0.5-11.8c0.1-4.5,0.1-6.8-0.1-9.2c-0.4-4.2-0.8-9.3-3.3-15c-0.9-1.9-1.5-2.9-3.3-7.1
		c-0.9-2.2-1.8-5-2-7.1c-0.3-2.2,0.3-4.2,1.4-5.4c0.5-0.6,0.7-4.8,6.4-6.9c4.1-1.5,12-1.1,21.3,12.6c0.5,0.8,0.6,1.6,0.8,2.1
		c0.4,0.6,1,1.4,1.7,2.4c1.9,2.7,3.2,4.6,4.6,6.7c1.7,2.8,3,5,4.1,8.3c0.6,2,0.9,3.5,1.2,5.6c0.4,2.5,0.8,6,0.8,10.3
		c-0.1,5.1-0.2,10.2-0.4,15.4c-0.1,3.1-0.2,6.2-0.4,9.2c0.6-9.4,1.2-18.8,1.8-28.2c0.3-3.3,0.3-7.1-0.3-11.4c-0.2-1.6-0.5-3-0.8-4.4
		c-0.6-1-1.5-2.6-2.5-4.5c-2.7-5.5-4-9.4-3.9-13.2c0.1-4.1,1.8-6.4,2.1-6.8c0.2-0.4,0.4-0.7,0.6-1c0.2-0.5,0.5-1.2,1-2
		c0.2-0.2,1.5-2.1,3.7-2.7c2.7-0.8,5.1,0.6,6.8,1.5c1.9,1.1,3.2,2.5,5.7,5.3c2.2,2.5,3.8,4.7,4.9,6.2c1.4,2,2.8,4.1,4.1,6.7
		c1,2.2,1.3,3.5,2.7,8.5c2.4,9,2.2,7.6,3.4,12.5c1.5,5.9,2.3,8.9,2.5,11.1c0.2,2,0.5,4-0.4,12.9c-1.5,16.7-2.6,17.1-2.2,23.7
		c0.2,3.2,0.5,4,1.2,11.8c0.6,7.3,0.6,9.6,0.6,10.4c0,1-0.1,5.6-1,11.4c-0.5,3.2-0.7,3.5-1,6c-0.4,3.5-0.2,5.3-0.2,9.2
		c0,5.1,0,8.5-0.5,12.6c-0.6,5-1,5-1.8,10.3c-5.7,36.6,13.6,65.4,16.9,73.3C448.9,379.9,414.6,379.8,380.3,379.8z"
        ></path>
        <path
          class="st2"
          d="M380.3,379.8c-1.1-2.4-2.8-6.7-5.2-9.8c-2.5-3.1-5-5.5-7.1-7.1c0,0-3.6-3.3-10.3-9.9c-3.5-3.4-3.1-3.2-10.7-11
		c-10.1-10.3-9.6-9.5-13.1-13.3c-4.2-4.6-5.3-6.2-9.1-9.9c-4.9-4.7-6.5-6.2-6.5-6.2c-2.9-2.7-3.5-3-4.5-4.4
		c-2.3-3.1-3.2-6.2-3.6-7.8c-0.7-2.9-0.5-3.9-0.8-8.5c-0.1-0.7-0.4-4.9-1.2-9.5c-0.8-4.3-1.8-10.1-4.4-15.7c-0.4-1-1.3-2.8-2-5.5
		c-0.5-2.2-0.7-4.1-0.8-5.4c-0.9-1.3-1.3-2.5-1.6-3.2c-0.2-0.7-0.2-0.9-0.8-4.3c-0.3-2.1-0.3-2-0.4-2.6c-0.1-0.7-0.4-2.6-0.4-4.1
		c-0.1-1.9,0.2-3.3,0.5-5.1c0.8-5.1,1.3-9.5,1.4-12c0.1-2,0.2-3.7,0.2-5c-1-3.4-1.9-6.2-2.6-8.1c-1-2.9-1.7-4.7-2.1-7.4
		c-0.2-1.8-0.2-3.2-0.2-4.3c0.4-0.3,0.8-0.6,1.4-0.9c0.4-0.2,0.8-0.4,1.1-0.5c0.7-0.5,1.6-1,2.9-1.5c2.7-1,5.1-0.7,6.1-0.6
		c3.9,0.4,6.7,2.4,8.7,3.9c4.7,3.4,7.1,7.5,8.9,10.5c2,3.5,3.1,6.4,4.1,9.4c1,2.9,1.8,5.7,2.3,8.7c0.5,3.3,0.5,5,0.3,6.2
		c-0.2,2-0.7,3.5-1.2,4.6c0.5,0.6,1.2,1.4,2,2.6c1,1.6,1.3,2.5,3,7.1c1.2,3.3,1.2,3.3,2,5.4c0.7,1.9,1.2,3.5,1.6,4.8
		c0-2.7-0.1-6.5-0.2-10.9c-0.1-4.7-0.3-9.6-0.7-14.8c-0.4-4.4-0.7-6.5-2.7-19.4c-0.5-3.6-1.4-9.4-2.5-16.8c-0.2-0.8-0.4-2-0.4-3.4
		c-0.1-2.5,0.5-4.5,1-6.2c1.5-4.8,3.4-9.3,4.4-11.6c0-1.3,0.2-3.1,0.7-5.1c0.2-0.8,0.4-2,1-3.3c0.5-1.4,1.5-3.4,3.2-5.5
		c0.4-0.9,1-2,1.8-3.2c1-1.4,2.4-3.4,5-4.9c3.6-2,7.1-1.7,8.4-1.5c1.7,0.2,3.1,0.6,4.1,1"
        ></path>
        <path
          class="st2"
          d="M406.3,210.4c0.2-2.8,0.4-6.8,0.5-11.8c0.1-4.5,0.1-6.8-0.1-9.2c-0.4-4.2-0.8-9.3-3.3-15
		c-0.9-1.9-1.5-2.9-3.3-7.1c-0.9-2.2-1.8-5-2-7.1c-0.3-2.2,0.3-4.2,1.4-5.4c0.5-0.6,0.7-4.8,6.4-6.9c4.1-1.5,12-1.1,21.3,12.6
		c0.5,0.8,0.6,1.6,0.8,2.1c0.4,0.6,1,1.4,1.7,2.4c1.9,2.7,3.2,4.6,4.6,6.7c1.7,2.8,3,5,4.1,8.3c0.6,2,0.9,3.5,1.2,5.6
		c0.4,2.5,0.8,6,0.8,10.3c-0.1,5.1-0.2,10.2-0.4,15.4c-0.1,3.1-0.2,6.2-0.4,9.2c0.6-9.4,1.9-19.2,2.5-28.6c0.3-3.3,0.2-5.7-0.4-9.9
		c-0.2-1.6-1-4.1-1.3-5.5c-0.6-1-1.5-2.6-2.5-4.5c-2.7-5.5-4-9.4-3.9-13.2c0.1-4.1,1.8-6.4,2.1-6.8c0.2-0.4,0.4-0.7,0.6-1
		c0.2-0.5,0.5-1.2,1-2c0.2-0.2,1.5-2.1,3.7-2.7c2.7-0.8,5.1,0.6,6.8,1.5c1.9,1.1,3.2,2.5,5.7,5.3c2.2,2.5,3.8,4.7,4.9,6.2
		c1.4,2,2.8,4.1,4.1,6.7c1,2.2,1.3,3.5,2.7,8.5c2.4,9,2.2,7.6,3.4,12.5c1.5,5.9,2.3,8.9,2.5,11.1c0.2,2,0.5,4-0.4,12.9
		c-1.5,16.7-2.6,17.1-2.2,23.7c0.2,3.2,0.5,4,1.2,11.8c0.6,7.3,0.6,9.6,0.6,10.4c0,1-0.1,5.6-1,11.4c-0.5,3.2-0.7,3.5-1,6
		c-0.4,3.5-0.2,5.3-0.2,9.2c0,5.1,0,8.5-0.5,12.6c-0.6,5-1,5-1.8,10.3c-5.7,36.6,13.6,65.4,16.9,73.3"
        ></path>
        <path
          stroke="#b600ef" stroke-width="1.5"
          d="M412.3,226.1c-3.9-5.5-6-15.7-6-15.7c-0.2-0.9-0.6-2.3-1-4c-1.1-4.6-1.6-8-1.8-9.8c-0.5-3.1-1.3-7.5-2.6-13.3
		c-0.5-2.2-1-4.5-1.6-6.8c-1.1-4.2-2.3-8.2-3.5-12c-0.9-3.3-1.8-6.6-2.7-9.9c-0.6-2.2-1.2-4.4-1.8-6.5c-0.1-2.7-0.3-5.6-0.8-8.8
		c-0.3-2-0.7-3.8-1.1-5.5c-0.1-1.2-0.3-2.8-0.9-4.7c-0.5-1.6-1.4-4.5-3.9-7.1c-1-1.1-3.9-4.2-8.7-4.8c-1-0.1-3.7-0.4-6.7,1
		c-3,1.5-4.4,3.9-5.5,5.8c-1.8,3-2.3,5.6-2.8,8.2c-0.7,3.8-0.6,6.6-0.5,10.4c0.1,2.8,0.3,6.6,1.1,11.1l0,0.4
		c0.6,2.6,1.9,6.4,1.6,10.9c-0.6,9.2,8.4,49.6,9.3,60c0.3,3.7,0.5,6.3,1.3,11.6"
        ></path>
      </g>
</svg>