<svg style="transform: translate(5px, 5px)" xmlns="http://www.w3.org/2000/svg" >
  <g id="open-bracket" fill="none" stroke-width="1.5" stroke="gray">
        <path
          class="st1"
          d="M422.4,379.4c-1.9-2.3-6.6-9-19.9-19.7c-5.6-4.5-8.6-5.7-11.4-7.1c-3.6-1.8-6.6-2.6-10.3-4.1
		c-17.9-7-15.9-7.7-30-13.1c-2.6-1-5.9-2.2-9.8-5c-4.7-3.3-7-6.1-7.7-7.1c-1.7-2.3-2.6-4.3-3.6-6.5c-1.4-3-1.7-4.6-3.5-10.2
		c-1.2-3.5-1.8-5.3-2.2-6.3c-1.8-4.3-3.2-6.4-5-9.7c-1.4-2.6-3.2-6.5-4.8-11.7c-0.7-1-1.6-2.4-2.4-4.2c-0.7-1.5-1.8-3.7-2.4-6.8
		c-0.3-1.6-0.3-2.5-0.4-6.4c-0.1-11.1-0.1-14.6,0.2-19.5c0-0.3,0-0.6,0-0.7c-1-1.6-2-3.3-2.9-5.3c-2.5-5.3-3.9-10.2-4.7-14.3
		c0.9-0.9,2.3-2.1,4.4-3.1c3.9-1.8,7.7-1.3,9.6-0.9c1.1,0.3,3.2,0.8,6.6,3.2c1.4,1,7,5,11.8,12.9c2.7,4.3,3.8,7.6,5.4,12.4
		c0.7,2,1.3,4.3,1.1,7.3c-0.1,1.6-0.5,2.8-0.8,3.7c-0.1,0.1-0.1,0.3-0.2,0.4c0.9,0.7,1.8,1.6,2.7,2.6c1.7,1.9,2,2.8,4.1,6
		c2.5,3.8,3,3.9,4.1,6.2c0.9,1.9,1.4,3.6,1.7,4.7c0.5,0.2,1.3,0.5,2,1.2c0.8,0.7,1.2,1.4,1.5,1.9c0.4-2.2,0.6-5.1,0.4-8.5
		c-0.2-2.8-0.8-4.2-1.8-9c-0.3-1.2-0.7-3.5-1.6-8.2c-3.2-17-3-16.6-4-21.1c-1-4.4-2.2-10.1-4.6-17.3c-2-6.2-3-9.3-4.6-16.6
		c-1.5-7,0.5-15.7,0.9-17c0.3-1.1,0.7-2,1-2.7c-0.4-4.4,0-8.1,0.4-10.7c0.5-2.9,1-6.1,3-9.8c1-1.9,2.1-3.4,2.9-4.4
		c0.2-0.7,0.6-1.6,1.1-2.5c2-3.1,5.1-4.2,6-4.5c0.7-0.2,5.8-1.9,10.1,1.1c1,0.7,1.6,1.4,2.1,1.9c0.6,0.2,1.5,0.7,2.3,1.5
		c0.4,0.4,0.8,0.9,1,1.2c0.4-1,1-2,1.8-3c0.2-0.2,0.3-0.4,0.5-0.6c0.5-1.2,1.4-3.2,3.4-4.9c5-4.6,11.7-3.4,12.1-3.3
		c2.7,0.5,4.7,1.8,6,2.8c0.5,0.1,1,0.4,1.6,0.7c0.3,0.2,0.6,0.4,0.9,0.5c0.2-0.7,0.5-1.7,1.3-2.8c0,0,1.3-1.9,3.8-3.2
		c3.6-1.8,10.2-1.8,16.6,0.5c6.8,2.4,10.9,6.5,12.6,8.3c2.4,2.4,4,4.8,5,6.6c0.7,0.7,1.4,1.4,2.1,2.3c2.3,2.8,3.4,5.5,4.4,8.2
		c3.2,8.9,4.2,14.8,4.2,14.8c1,5.8,2.2,13.7,2.7,23.5c0.4-0.6,1.1-1.6,1.7-3c1.3-3,1.3-4.2,1.4-5.3c0.6-7,1.7-12.5,2.3-20.1
		c0.1-3.6,0.2-18.6-0.4-22.3c-0.4-2.2-0.5-1.6-1.5-6.3c-1.2-5.3-1.4-8-1.6-9.8c-0.1-2-0.2-3.3,0-5.1c0.2-1.4,0.5-3.8,1.9-6.3
		c0.7-1.2,2.9-5.1,7.4-6.2c0.8-0.2,3.4-0.8,6,0.5c1,0.5,2.1,1.3,3.9,4c2.4,3.5,3.6,6.7,4.1,8.1c1,2.9,2.4,6.7,3.1,11.9
		c0.8,5.5,1.5,17.5,1.9,19.7c1,5.7,1.8,7.6,2.5,12.2c0.1,0.7,1.1,13,0.1,23.4c-0.5,5.4-0.7,5-1.1,9.7c-0.4,4.7-0.7,8.1-0.4,12.2
		c0.3,4.7,1,6.1,1.8,11c0.6,3.7,1.2,9.1,0.9,15.8c0.5,1.4,1.2,3.4,1.9,5.8c1.7,5.6,3.1,9.9,3.9,15.4c0.7,4.3,0.3,4.5,1.4,13.3
		c0.3,2.3,0.6,4.2,0.7,5.4c1.1,7.8,2.4,14.3,3.3,18.4c0.5,2.3,1.3,6,2.5,10.5c1.1,4.2,2.5,9.8,4.5,15.6c2.7,8.1,5.6,13.8,8.5,19.7
		c1.7,3.4,5.8,11.3,12,20.9c1.7,2.7,3.3,4.9,4.4,6.5C491.3,379.4,456.9,379.4,422.4,379.4z"
        ></path>
        <path
          class="st2"
          d="M383.6,226.5c-0.3-2.8-0.8-7-1.9-12c-0.9-4.3-1.5-5.4-4.4-14.9c-3.4-11.2-5.1-17.5-5.6-19.3
		c-0.4-1.7-1.4-4.3-2-8c-0.1-0.8-0.4-2.8-0.4-7.8c0-2.7,0.1-6.4,0.4-10.7"
        ></path>
        <path
          class="st2"
          d="M416.4,203.9c-0.3-1.8-1.6-12.4-3.4-21.4c0,0-1.9-6.3-3.6-11c-1.8-4.8-0.9-2.1-4.4-8.9c-2.1-4.2-5-7.1-5.7-7.8
		c-0.9-3-1.8-5.9-2.7-8.9c-0.1,0-0.2,0.1-0.4,0.1c1,3,2.1,5.8,3.1,8.7c0.2,0.2,6.6,11.6,7.7,15.2c0.1,0.4,0.9,3.1,2.4,8.5
		c1.7,5.9,2.2,7.8,3.1,11.2C413.4,192.4,415,199.2,416.4,203.9z"
        ></path>
        <path
          class="st2"
          d="M422.4,379.4c-1.9-2.3-6.6-9-19.9-19.7c-5.6-4.5-8.6-5.7-11.4-7.1c-3.6-1.8-6.6-2.6-10.3-4.1
		c-17.9-7-15.9-7.7-30-13.1c-2.6-1-5.9-2.2-9.8-5c-4.7-3.3-7-6.1-7.7-7.1c-1.7-2.3-2.6-4.3-3.6-6.5c-1.4-3-1.7-4.6-3.5-10.2
		c-1.2-3.5-1.8-5.3-2.2-6.3c-1.8-4.3-3.2-6.4-5-9.7c-1.4-2.6-3.2-6.5-4.8-11.7c-0.7-1-1.6-2.4-2.4-4.2c-0.7-1.5-1.8-3.7-2.4-6.8
		c-0.3-1.6-0.3-2.5-0.4-6.4c-0.1-11.1-0.1-14.6,0.2-19.5c0-0.3,0-0.6,0-0.7c-1-1.6-2-3.3-2.9-5.3c-2.5-5.3-3.9-10.2-4.7-14.3
		c0.9-0.9,2.3-2.1,4.4-3.1c3.9-1.8,7.7-1.3,9.6-0.9c1.1,0.3,3.2,0.8,6.6,3.2c1.4,1,7,5,11.8,12.9c2.7,4.3,3.8,7.6,5.4,12.4
		c0.7,2,1.3,4.3,1.1,7.3c-0.1,1.6-0.5,2.8-0.8,3.7c-0.1,0.1-0.1,0.3-0.2,0.4c0.9,0.7,1.8,1.6,2.7,2.6c1.7,1.9,2,2.8,4.1,6
		c2.5,3.8,3,3.9,4.1,6.2c0.9,1.9,1.4,3.6,1.7,4.7c0.5,0.2,1.3,0.5,2,1.2c0.8,0.7,1.2,1.4,1.5,1.9c0.4-2.2,0.6-5.1,0.4-8.5
		c-0.2-2.8-0.8-4.2-1.8-9c-0.3-1.2-0.7-3.5-1.6-8.2c-3.2-17-3-16.6-4-21.1c-1-4.4-2.2-10.1-4.6-17.3c-2-6.2-3-9.3-4.6-16.6
		c-1.5-7,0.5-15.7,0.9-17c0.3-1.1,0.7-2,1-2.7c-0.4-4.4,0-8.1,0.4-10.7c0.5-2.9,1-6.1,3-9.8c1-1.9,2.1-3.4,2.9-4.4
		c0.2-0.7,0.6-1.6,1.1-2.5c2-3.1,5.1-4.2,6-4.5c0.7-0.2,5.8-1.9,10.1,1.1c1,0.7,1.6,1.4,2.1,1.9c0.6,0.2,1.5,0.7,2.3,1.5
		c0.4,0.4,0.8,0.9,1,1.2c0.4-1,1-2,1.8-3c0.2-0.2,0.3-0.4,0.5-0.6c0.5-1.2,1.4-3.2,3.4-4.9c5-4.6,11.7-3.4,12.1-3.3
		c2.7,0.5,4.7,1.8,6,2.8c0.5,0.1,1,0.4,1.6,0.7c0.3,0.2,0.6,0.4,0.9,0.5c0.2-0.7,0.5-1.7,1.3-2.8c0,0,1.3-1.9,3.8-3.2
		c3.6-1.8,10.2-1.8,16.6,0.5c6.8,2.4,10.9,6.5,12.6,8.3c2.4,2.4,4,4.8,5,6.6c0.7,0.7,1.4,1.4,2.1,2.3c2.3,2.8,3.4,5.5,4.4,8.2
		c3.2,8.9,4.2,14.8,4.2,14.8c1,5.8,2.2,13.7,2.7,23.5"
        ></path>
        <path
          class="st2"
          d="M480,220.2c0,0.4,0,0.4,0,0.8c0.3,4.7,1,6.1,1.8,11c0.6,3.7,1.2,9.1,0.9,15.8c0.5,1.4,1.2,3.4,1.9,5.8
		c1.7,5.6,3.1,9.9,3.9,15.4c0.7,4.3,0.3,4.5,1.4,13.3c0.3,2.3,0.6,4.2,0.7,5.4c1.1,7.8,2.4,14.3,3.3,18.4c0.5,2.3,1.3,6,2.5,10.5
		c1.1,4.2,2.5,9.8,4.5,15.6c2.7,8.1,5.6,13.8,8.5,19.7c1.7,3.4,5.8,11.3,12,20.9c1.7,2.7,3.3,4.9,4.4,6.5"
        ></path>
        <path
          stroke="#b600ef" stroke-width="1.5"
          d="M449.6,202.5c1.3-3,2.1-5.7,2.2-6.9c0.6-7,1.7-12.5,2.3-20.1c0.1-3.6,0.2-18.6-0.4-22.3
		c-0.4-2.2-0.5-1.6-1.5-6.3c-1.2-5.3-1.4-8-1.6-9.8c-0.1-2-0.2-3.3,0-5.1c0.2-1.4,0.5-3.8,1.9-6.3c0.7-1.2,2.9-5.1,7.4-6.2
		c0.8-0.2,3.4-0.8,6,0.5c1,0.5,2.1,1.3,3.9,4c2.4,3.5,3.6,6.7,4.1,8.1c1,2.9,2.4,6.7,3.1,11.9c0.8,5.5,1.5,17.5,1.9,19.7
		c1,5.7,1.8,7.6,2.5,12.2c0.1,0.7,1.1,13,0.1,23.4c-0.5,5.4-0.7,5-1.1,9.7c-0.3,4.1-0.6,7.3-0.5,10.8"
        ></path>
      </g>
</svg>