<svg style="transform: translate(-40px, 0px)" xmlns="http://www.w3.org/2000/svg" >
  <g id="q" fill="none" stroke-width="1.5" stroke="gray">
			<path
          class="st1"
          d="M172,381.8c4-4.9,16.7-23.8,28.5-32.7c11.8-8.9,47.5-34.8,52.7-40.5c5.2-5.6,6.3-11.3,9.4-21.4
		s14.8-36.9,16-40.7c1.2-3.8,0.9-13.2,2.2-17.7v-1.6c0,0,8.4-19.9,7.6-22.4c-0.7-2.5-9.2-4.3-16-2.2c-6.8,2-15.4,12.4-18.6,17.6
		s-7.8,13.2-6.1,20c-2,0.2-3.1,1.8-3.4,3.1c-0.3,1.3-7.2,17.5-7.2,17.5s-2.8,0.9-4.7,2.8s-2.7,4.5-2.7,4.5s-2.7-1.7-3.2-3.1
		s2.5-14.5,6.2-23c3.7-8.4,12-24.9,13.8-28c1.9-3.1,10.8-20,12.2-24.1c1.4-4.1,10.2-12,11.6-18.3s4.2-11.3,1.1-18
		c-3.1-6.7-9.4-7-14.2-5.5c-4.8,1.6-12.5,11.6-16.1,18.9c-3.6,7.3-11.4,7-21.9,23.3s-16.7,25.6-17.4,28.1c-0.6,2.5-0.3,4.8-1.9,7.2
		c-1.6,0.7-1.6-11.4,1-17.1c2.6-5.7,12.3-19.7,12.9-22.3c1.3-0.6,9.7-2.5,14.1-10.2c2.2-3.8,4.8-2.2,7.9-7.7
		c3.1-5.5,3.4-9.3,1.3-12.5c-0.7-3.4-4.5-7.5-12.5-5.9s-10,3.4-10.3,3.6c-1-0.5-2.7-4.7-7.8-5.5c-5.2-0.9-11,1.9-13.5,3.4
		c-3-0.1-9.7,0.3-13.1,2.8c-4.2-0.4-11.3,0-15.8,2.6c1.9-3.5,6.2-14,4.5-22.2c-1.6-8.2-10.6-11-12.5-11.1c-1.9-0.1-5.2,6.9-7.4,10.8
		c-2.3,3.9-14,24.2-19.2,33.8c-5.2,9.6-10,24.2-11.6,28.2s-2.5,16.5-2.9,21.4c-0.4,4.9-7.3,22.2-8.7,28c-1.4,5.8-1.5,25.5-4.5,45.8
		c-3,20.3,0,11.3-3.1,24.3c-3.1,13-5.7,20.7-17.1,36.7s-13.4,22.8-18,29.2H172z"
        ></path>
        <path
          class="st2"
          d="M172,381.8c4-4.9,16.7-23.8,28.5-32.7c11.8-8.9,47.5-34.8,52.7-40.5c5.2-5.6,6.3-11.3,9.4-21.4
		s14.8-36.9,16-40.7c1.2-3.8,0.9-13.2,2.2-17.7v-1.6c0,0,8.4-19.9,7.6-22.4c-0.7-2.5-9.2-4.3-16-2.2c-6.8,2-15.4,12.4-18.6,17.6
		s-7.8,13.2-6.1,20c-2,0.2-3.1,1.8-3.4,3.1c-0.3,1.3-7.2,17.5-7.2,17.5s-2.8,0.9-4.7,2.8s-2.7,4.5-2.7,4.5s-2.7-1.7-3.2-3.1
		s2.5-14.5,6.2-23c3.7-8.4,12-24.9,13.8-28c1.9-3.1,10.8-20,12.2-24.1c1.4-4.1,10.2-12,11.6-18.3s4.2-11.3,1.1-18
		c-3.1-6.7-9.4-7-14.2-5.5c-4.8,1.6-12.5,11.6-16.1,18.9c-3.6,7.3-11.4,7-21.9,23.3s-16.7,25.6-17.4,28.1c-0.6,2.5-0.3,4.8-1.9,7.2
		c-1.6,0.7-1.6-11.4,1-17.1c2.6-5.7,12.3-19.7,12.9-22.3c1.3-0.6,9.7-2.5,14.1-10.2c2.2-3.8,4.8-2.2,7.9-7.7
		c3.1-5.5,3.4-9.3,1.3-12.5c-0.7-3.4-4.5-7.5-12.5-5.9s-10,3.4-10.3,3.6c-1-0.5-2.7-4.7-7.8-5.5c-5.2-0.9-11,1.9-13.5,3.4
		c-3-0.1-9.7,0.3-13.1,2.8c-4.2-0.4-11.3,0-15.8,2.6c1.9-3.5,6.2-14,4.5-22.2c-1.6-8.2-10.6-11-12.5-11.1c-1.9-0.1-5.2,6.9-7.4,10.8
		c-2.3,3.9-14,24.2-19.2,33.8c-5.2,9.6-10,24.2-11.6,28.2s-2.5,16.5-2.9,21.4c-0.4,4.9-7.3,22.2-8.7,28c-1.4,5.8-1.5,25.5-4.5,45.8
		c-3,20.3,0,11.3-3.1,24.3c-3.1,13-5.7,20.7-17.1,36.7s-13.4,22.8-18,29.2"
        ></path>
        <path
          stroke="#b600ef" stroke-width="1.5"
          d="M164.2,156.8c1.9-3.5,6.2-14,4.5-22.2c-1.6-8.2-10.6-11-12.5-11.1c-1.9-0.1-5.2,6.9-7.4,10.8
		c-2.3,3.9-14,24.2-19.2,33.8c-5.2,9.6-10,24.2-11.6,28.2s-2.5,16.5-2.9,21.4"
        ></path>
        <path
          class="st2"
          d="M134.6,203.9c0.5-6.1,6-35.1,11.2-39.1s12-3,13.8-4c1.7-1,4.6-4.7,8.1-5.5"
        ></path>
        <path class="st2" d="M187.9,157.2c-2.4-1.2-4.8-2.8-7.9-3"></path>
        <path
          class="st2"
          d="M153.5,220.9c4-0.7,6.8-4.8,11.5-17c4.7-12.2,13.9-37.5,19.7-41.2c5.8-3.7,13.1-1.9,15.2-2.4
		c2.1-0.5,5.1-2.8,11.2-2.4s13.2,4.9,13.2,4.9"
        ></path>
        <path class="st2" d="M214.4,153.6c0,0-2.7,1.6-5.1,4.3"></path>
      </g>
</svg>