<svg style="transform: translate(-40px, 5px)" xmlns="http://www.w3.org/2000/svg" >
  <g id="tilda" fill="none" stroke-width="1.5" stroke="gray">
        <path
          id="bg"
          class="st1"
          d="M270.2,185.6c-7.9-0.5-14.3,1.4-24.2,7.2c-9.9,5.8-13.6,13.3-14.1,17.5c-8,6.9-12.9,22-13.5,25.2
		c-2.4,0.3-5.5,5.8-6.3,6c-0.8,0.3-0.6-1.3-0.6-3.7c0-2.4-1.9-2.8-2.3-4.8c-0.4-2,1.3-4.9,1.7-8c0.4-3.1-1.3-5.9-1.3-7.3
		c0-1.4,1.2-3.3,7.7-11.3c6.5-8,12.5-9.4,17-12.3c4.5-2.8,9.3-8.1,19.3-12.6c10-4.5,16.7-11.3,17.8-21.3
		c1.1-10.1-6.3-12.2-11.6-12.4c-5.2-0.3-14.3,7.2-14.3,7.2c-1.5,0.2-3.1,0.6-3.5,0.6c-1.2,0-1.4-1-3.8-1.6l0-0.1
		c-0.4-5.9-8-12.3-9-13.2c-1-0.9-1.5-6.3-5-10.3c-1.7-11.2-14-18.6-22.4-18c-3.2,0.3-7.8,2.8-12.5,6.1l-0.1-0.1
		c-1.9-3.6-5.9-4.6-9.4-6c-3.5-1.4-7-7.4-19.5-6.5c-12.5,0.9-14.2,8.2-20.8,16.5c-1.2,1.5-2.2,3-3.1,4.4l0.3-1.8
		c0,0,0.3-11.7-1.9-20.4c-2.2-8.6-9.1-10.4-9.1-10.4s-1.3-2.4-6.5-1.1c-5.3,1.3-4.5,12.1-4.9,18.1c-0.4,6.1,0.6,10.5,0.6,12.2
		c0,1.7-1.2,3.1-1.9,5.1c-0.7,2-0.4,5.2-0.7,6.5c-0.2,1.3-1.5,2.5-2,4.3c-0.5,1.8-0.5,4.1-1,6.5c-0.4,2.4-2.7,4.5-4.4,9.2
		c-1.7,4.7-1.7,10.6-3.1,15.4c-1.4,4.8-7.1,13.8-9.1,18.3c-2,4.6-4.7,12.8-5.7,18c-1,5.2-12.4,27.7-15,34.3
		c-2.6,6.6-9.7,27.2-12,34.5c-2.3,7.3-19.3,41.4-26.3,57.6c-7,16.2-15,25.8-17.7,31c-2.7,5.2-3.1,16-3.1,16h108.4
		c2.3-9.1,16.4-30.3,32.8-47.7c16.4-17.3,31.7-21.6,42.8-27.2c11.1-5.6,36.8-13.5,43.6-22c6.8-8.5,8.9-25.4,12.9-41.9
		c4-16.5,8-24.4,10-27c2-2.6,1.5-1.9,2-4.3c2-1.2,12.7-11.1,14.3-15.8C279.5,191.3,278.1,186.1,270.2,185.6z M193.8,170.4v-0.9
		c0,0,1.2-8.4,7.9-10.5c1.2-0.4,2.4-0.8,3.5-1.3c3.5-1.3,10.1,4.2,10.1,4.2c-5.7,3.1-9,4.6-17.8,7.5
		C196.2,169.9,195,170.2,193.8,170.4z"
        ></path>
        <path
          class="st2"
          d="M108.5,170.6c3.5-5.1,14.2-16.4,18.5-23.8c4.3-7.5,5.7-15.9,12.4-24.1c6.6-8.2,8.4-15.6,20.8-16.5
		c12.5-0.9,15.9,5.1,19.5,6.5c3.5,1.4,7.5,2.5,9.4,6"
        ></path>
        <path
          class="st2"
          d="M149.4,152.9c3.6-1.9,15.5-10.7,20.6-17c5.2-6.3,23.2-22.5,31.6-23.2c8.4-0.7,20.7,6.8,22.4,18
		c3.6,4,4,9.3,5,10.3c1,0.9,8.6,7.3,9,13.2c0,0-5-2.7-22.8,7.8c0,0-6.6-5.5-10.1-4.2"
        ></path>
        <path
          class="st2"
          d="M193.8,169.5c0,0,1.2-8.4,7.9-10.5c6.7-2.1,11.9-5.9,14.9-9.8"
        ></path>
        <path
          class="st2"
          d="M180.9,169.5c0,0,7.8,2.9,16.6,0c8.8-2.9,12.1-4.4,17.8-7.5c5.7-3.2,14.6-8.3,19.9-8c5.4,0.3,5.1,2,6.7,2
		s10.3-3.4,19.1,6.1"
        ></path>
        <path
          class="st2"
          d="M12.8,380.5c0,0,0.4-10.8,3.1-16c2.7-5.2,10.7-14.8,17.7-31c7-16.2,24-50.3,26.3-57.6s9.3-27.8,12-34.5
		c2.6-6.6,14-29.1,15-34.3c1-5.2,3.6-13.5,5.7-18c2.1-4.5,7.7-13.6,9.1-18.3c1.4-4.8,1.3-10.7,3.1-15.4c1.7-4.7,4-6.8,4.4-9.2
		c0.4-2.4,0.5-4.7,1-6.5c0.5-1.8,1.7-3,2-4.3c0.2-1.3,0-4.5,0.7-6.5c0.7-2,1.9-3.5,1.9-5.1s-1-6.1-0.6-12.1
		c0.4-6.1-0.4-16.8,4.9-18.1c5.3-1.3,6.5,1.1,6.5,1.1s6.9,1.7,9.1,10.4c2.2,8.6,1.9,20.3,1.9,20.3"
        ></path>
        <path
          class="st2"
          d="M245.4,154.8c0,0,9.2-7,14.4-6.7s12.7,2.4,11.6,12.4s-7.8,16.9-17.8,21.3c-10,4.5-14.8,9.8-19.3,12.6
		c-4.5,2.8-10.5,4.3-17,12.3c-6.5,8-7.7,9.9-7.7,11.3s1.7,4.1,1.3,7.3c-0.4,3.2-2.1,6-1.7,8c0.4,2,2.3,2.4,2.3,4.8s-0.2,3.9,0.6,3.7
		c0.8-0.3,3.9-5.7,6.3-6c0.6-3.2,5.5-18.3,13.5-25.2c0.4-4.3,4.2-11.7,14-17.5s16.3-7.7,24.2-7.2s9.3,5.7,9.3,8.9
		c-1.6,4.8-12.3,14.6-14.3,15.8c-0.5,2.5,0.1,1.7-2,4.3c-2,2.6-6,10.5-10,27c-4,16.5-6.1,33.3-12.9,41.9
		c-6.8,8.5-32.5,16.4-43.6,22.1s-26.4,9.9-42.8,27.2s-30.4,38.6-32.8,47.7"
        ></path>
        <path
          stroke="#b600ef" stroke-width="1.5"
          d="M92.6,189.1c2.1-4.5,7.7-13.6,9.1-18.3c1.4-4.8,1.3-10.7,3.1-15.4c1.7-4.7,4-6.8,4.4-9.2
		c0.4-2.4,0.5-4.7,1-6.5c0.5-1.8,1.7-3,2-4.3c0.2-1.3,0-4.5,0.7-6.5c0.7-2,1.9-3.5,1.9-5.1s-1-6.1-0.6-12.1
		c0.4-6.1-0.4-16.8,4.9-18.1c5.3-1.3,6.5,1.1,6.5,1.1s6.9,1.7,9.1,10.4c2.2,8.6,1.9,20.3,1.9,20.3"
        ></path>
        <path class="st2" d="M224.1,130.7c0,0-0.2,6.6-1.9,10.9"></path>
      </g>
</svg>