<svg style="transform: translate(-40px, 5px)" xmlns="http://www.w3.org/2000/svg" >
  <g id="tab" fill="none" stroke-width="1.5" stroke="gray">
        <path
          class="st1"
          d="M172.2,381.9c5.6-8.1,12.2-19.9,20.7-26.7s26-17,32.5-20.1c6.6-3.2,9.5-6.6,13.8-8.5c4.4-1.9,10.7-4.1,14.3-7
		c3.6-2.9,6.6-7.3,8.6-14.5s14.7-36.7,14-37.9c0.9-0.4,5-9.3,4.2-10.7c1-0.6,0.8-8.6,2.1-13.4c1.3-4.8,2-5.4,0-7.5
		c2.3-1.6,11.7-15.4,10.7-21s-11.7-5.5-16.2-2.7c-4.4,2.8-14.1,10-17.4,15.2c-3.3,5.2-8.6,17-8.6,18.6c0,1.6,1.1,2.3,0.6,2.7
		s-6.4,11.6-8,14.4c-1.6,2.8-4.1,6.5-4,7.7c-1,1.1-4.2,2.1-7.9,7.1c-1.5-1.2-9.9-5.9-12.9-6.9c0.4-2.3,5.3-18.6,8-23.5
		c2.7-4.9,18.9-28.6,21.6-32.4c2.7-3.8,8.8-17.9,11.6-21.8c2.8-3.8,14.3-19.9,13-34.1c-1.3-14.1-15.6-10-16.6-6.8
		c-3,1.8-10,10-13.3,17.9c-5.6,7.3-19.1,20.9-24.1,26.9c-5,6-17.8,24.4-19.3,25.6c-1.5,1.2-7.3,1.5-6.8-2.8
		c0.5-4.3,5.2-14.3,9.8-21.6c4.7-7.3,9.8-15.6,9.8-17.1c1.4-0.2,11-6.2,13.1-8.9c3.2-1.1,14.8-7.6,14.2-14.8
		c-0.6-7.2-7.9-9.4-15.6-9.5c-7.7-0.1-13.5,1.4-15.4,1.3c-1.9-1.3-4.2-1.9-8-1.9c-3.8,0-5.6,1.5-7.2,1.6s-5.5-0.4-8-0.1
		c-2.5,0.3-5.3,2-8.4,2.3s-8,0.4-11.7,1.5s-5.8,3.3-8.8,3.9c-2.9,0.6-8.1,0.9-13.1,4.6c-4.9,3.7-6.7,11.4-6.7,11.4s3.3-7.9,4.3-11.2
		c1-3.3,4.6-15.9,1.5-24.1c-3-8.2-15.1-9.9-17-8.9c-1.9,1-3.2,6.5-3.9,12.3s-4.4,12.6-5.1,14.8s-0.3,4.7-0.5,6.2
		c-0.3,1.5-2.2,5.5-3.2,8.4c-1,2.9-0.8,6.6-2.7,10.9s-2.5,6-2.8,8c-0.3,2-1.5,6-2.3,10s-0.9,23.5-0.9,23.5s-0.1,8.9-1.6,14.5
		s-3,8.5-3.2,13.8s-2.4,24.9-3.3,30.7s-5.1,35.8-5.8,41.6c-0.8,5.8-0.5,7.2-3.8,13.5c-3.3,6.2-8.5,15.6-12.1,21.3
		c-3.6,5.7-13.1,19.8-16.9,24H172.2z"
        ></path>
        <path
          class="st2"
          d="M172.2,381.9c5.6-8.1,12.2-19.9,20.7-26.7s26-17,32.5-20.1c6.6-3.2,9.5-6.6,13.8-8.5c4.4-1.9,10.7-4.1,14.3-7
		c3.6-2.9,6.6-7.3,8.6-14.5s14.7-36.7,14-37.9c0.9-0.4,5-9.3,4.2-10.7c1-0.6,0.8-8.6,2.1-13.4c1.3-4.8,2-5.4,0-7.5
		c2.3-1.6,11.7-15.4,10.7-21s-11.7-5.5-16.2-2.7c-4.4,2.8-14.1,10-17.4,15.2c-3.3,5.2-8.6,17-8.6,18.6c0,1.6,1.1,2.3,0.6,2.7
		s-6.4,11.6-8,14.4c-1.6,2.8-4.1,6.5-4,7.7c-1,1.1-4.2,2.1-7.9,7.1c-1.5-1.2-9.9-5.9-12.9-6.9c0.4-2.3,5.3-18.6,8-23.5
		c2.7-4.9,18.9-28.6,21.6-32.4c2.7-3.8,8.8-17.9,11.6-21.8c2.8-3.8,14.3-19.9,13-34.1c-1.3-14.1-15.6-10-16.6-6.8
		c-3,1.8-10,10-13.3,17.9c-5.6,7.3-19.1,20.9-24.1,26.9c-5,6-17.8,24.4-19.3,25.6c-1.5,1.2-7.3,1.5-6.8-2.8
		c0.5-4.3,5.2-14.3,9.8-21.6c4.7-7.3,9.8-15.6,9.8-17.1c1.4-0.2,11-6.2,13.1-8.9c3.2-1.1,14.8-7.6,14.2-14.8
		c-0.6-7.2-7.9-9.4-15.6-9.5c-7.7-0.1-13.5,1.4-15.4,1.3c-1.9-1.3-4.2-1.9-8-1.9c-3.8,0-5.6,1.5-7.2,1.6s-5.5-0.4-8-0.1
		c-2.5,0.3-5.3,2-8.4,2.3s-8,0.4-11.7,1.5s-5.8,3.3-8.8,3.9c-2.9,0.6-8.1,0.9-13.1,4.6c-4.9,3.7-6.7,11.4-6.7,11.4s3.3-7.9,4.3-11.2
		c1-3.3,4.6-15.9,1.5-24.1c-3-8.2-15.1-9.9-17-8.9c-1.9,1-3.2,6.5-3.9,12.3s-4.4,12.6-5.1,14.8s-0.3,4.7-0.5,6.2
		c-0.3,1.5-2.2,5.5-3.2,8.4c-1,2.9-0.8,6.6-2.7,10.9s-2.5,6-2.8,8c-0.3,2-1.5,6-2.3,10s-0.9,23.5-0.9,23.5s-0.1,8.9-1.6,14.5
		s-3,8.5-3.2,13.8s-2.4,24.9-3.3,30.7s-5.1,35.8-5.8,41.6c-0.8,5.8-0.5,7.2-3.8,13.5c-3.3,6.2-8.5,15.6-12.1,21.3
		c-3.6,5.7-13.1,19.8-16.9,24"
        ></path>
        <path
          stroke="#b600ef" stroke-width="1.5"
          d="M141.2,161.3c1-3.3,4.6-15.9,1.5-24.1c-3-8.2-15.1-9.9-17-8.9c-1.9,1-3.2,6.5-3.9,12.3s-4.4,12.6-5.1,14.8
		s-0.3,4.7-0.5,6.2c-0.3,1.5-2.2,5.5-3.2,8.4c-1,2.9-0.8,6.6-2.7,10.9s-2.5,6-2.8,8c-0.3,2-1.5,6-2.3,10s-0.9,23.5-0.9,23.5"
        ></path>
        <path
          class="st2"
          d="M120.6,218.1c3.1-5,8.6-17.4,9.7-25c1-7.6,7.2-24.3,10.2-28.7"
        ></path>
        <path
          class="st2"
          d="M145.4,222.1c3.9-5,8.1-7.8,12.2-17.1c4.1-9.3,8.9-18,13.2-26.1c4.3-8.1,10.5-17.9,12.9-19.2
		c2.5-1.3,5.1-1.6,7.3-2.4c2.2-0.8,6.4-3.8,9.4-5.1c3-1.3,7.3-2.9,11.6-3.4"
        ></path>
      </g>
</svg>