<svg style="transform: translate(-40px, 0px)" xmlns="http://www.w3.org/2000/svg" >
  <g id="w" fill="none" stroke-width="1.5" stroke="gray">
        <path
          class="st1"
          d="M205.4,381.4c4.4-5.4,8.7-10.4,15.4-15.6c6.7-5.2,11.4-9.4,15.6-13.7s15.4-16.7,24.8-23.9
		c9.4-7.3,12.7-11.8,15.2-15.2c2.9-4,1.3-15.8,7.4-29c6.2-13.2,5.5-16.8,5.5-16.8s3.9-4,4.3-8.8c0.4-4.8,0.1-17.5,3.2-20.5l-2.1-2.1
		c0,0,8.2-14.5,9.1-23.2c-3.2-3.9-17.9-4.9-29.5,9.7c-11.5,14.6-11.2,21.6-10.4,27.4c-3,2-4.5,7.3-6.6,12.1s-3.7,8.9-3.6,9.9
		c-1,0.1-6,5.4-7.6,9.5s0.7-20.1,3.3-31.3c2.6-11.1,13.1-35.3,14.9-40.8c1.8-5.5,2.7-12.9,3.7-17.5c0.9-4.6,5.3-11.3,5.8-14.9
		c0.5-3.7,1.1-18-2.6-21.2c-3.7-3.2-6.2-3.8-12.3-3.8c-6.1,0-13.6,15.5-13.2,23.3c-2,2.4-7.6,11-9.5,14.7s-15,31.1-18.2,42.3
		c-0.7,1.4-5.6,1.2-5.9,0c-0.3-1.2,5-21.8,7.4-28.3c2.4-6.5,5.7-12.3,5.9-15.6c1.3-0.3,7.9-6.5,9-11.5c2-1.7,11.6-12.8,6.7-20.4
		c-0.5-3.6-8.5-5.1-12.6-4.4c-4,0.7-6.1,3.1-6.1,3.1s-2.8,0-5,2.4c-2.2,2.4-3.3,4.2-5.3,4.7s-15,9.4-17.8,12.8
		c-2.8,3.3-0.8-2.5-0.8-2.5s2.6-10.4,4.8-15.5c2.2-5.1,5.4-14.2,5.4-18.5c0-4.3-1.8-7-2.6-7.6c-0.4-1.1-1.6-5.9-9.3-6.9
		c-7.6-0.9-9.3,7.6-10.8,9.8c-1.5,2.2-8.7,10.9-10.3,20.3c-3,1.3-16.7,17.3-21.5,24.2c-4.8,6.9-8.8,15.8-10.7,18.7
		c-2,2.8-4.9,7.4-8.6,18.1c-3.7,10.7-4.2,20.8-6.4,26.2c-2.1,5.4-8.3,21.2-9,27.3c-0.7,6.1,0.8,57.7-0.7,63s-2,7.6-2.1,10.2
		c-0.1,2.5-20.4,39.6-20.8,40.1H205.4z"
        ></path>
        <path
          class="st2"
          d="M91.2,381.4c0.4-0.5,20.6-37.5,20.8-40.1c0.1-2.5,0.6-4.8,2.1-10.2s0-57,0.7-63c0.7-6.1,6.9-21.9,9-27.3
		c2.1-5.4,2.7-15.4,6.4-26.2c3.7-10.7,6.6-15.3,8.6-18.1c2-2.8,5.9-11.7,10.7-18.7c4.8-6.9,18.5-22.9,21.5-24.2
		c1.5-9.4,8.8-18.1,10.3-20.3c1.5-2.2,3.1-10.8,10.8-9.8c7.6,0.9,8.9,5.8,9.3,6.9c0.9,0.6,2.6,3.4,2.6,7.6c0,4.3-3.2,13.3-5.4,18.5"
        ></path>
        <path
          class="st2"
          d="M166.5,236.2c2.1-1.7,5.1-4.3,6.5-6.2c1.4-1.9,6.2-11.9,7-18.8c0.8-6.9,3.3-15.5,6.3-22.3
		c3-6.8,6-11.3,8.3-14.4c2.2-3.1,15.8-12.3,17.8-12.8s3.1-2.3,5.3-4.7c2.2-2.4,5-2.4,5-2.4s2.1-2.4,6.1-3.1c4-0.7,12,0.8,12.6,4.4
		c4.9,7.6-4.7,18.7-6.7,20.4c-1.1,5-7.7,11.2-9,11.5c-0.2,3.3-3.5,9-5.9,15.6c-2.4,6.5-7.7,27.1-7.4,28.3c0.3,1.2,5.2,1.4,5.9,0
		c3.2-11.1,16.3-38.7,18.2-42.3s7.5-12.3,9.5-14.7c-0.4-7.8,7-23.3,13.2-23.3c6.1,0,8.7,0.6,12.3,3.8c3.7,3.2,3,17.5,2.6,21.2
		c-0.5,3.7-4.9,10.3-5.8,14.9c-0.9,4.6-1.8,12-3.7,17.5c-1.8,5.5-12.3,29.7-14.9,40.8c-2.6,11.1-4.9,35.4-3.3,31.3s6.6-9.4,7.6-9.5
		c-0.1-1,1.4-5.2,3.6-9.9s3.6-10.1,6.6-12.1c-0.8-5.8-1.2-12.8,10.4-27.4c11.5-14.6,26.2-13.7,29.5-9.7c-0.9,8.7-9.1,23.2-9.1,23.2
		l2.1,2.1c-3.1,3-2.9,15.7-3.2,20.5c-0.4,4.8-4.3,8.8-4.3,8.8s0.6,3.6-5.5,16.8c-6.2,13.2-4.5,25.1-7.4,29
		c-2.5,3.4-5.8,7.9-15.2,15.2c-9.4,7.3-20.6,19.6-24.8,23.9s-9,8.5-15.6,13.7c-6.7,5.2-11,10.2-15.4,15.6"
        ></path>
		<path
		stroke="#b600ef" stroke-width="1.5"
		d="M140.2,233.7c1.2-1.9,3.2-4,4.7-4.7c0-2.6,1.1-14.3,4.2-23.4s8-20.6,10-25.2c1.9-4.6,8.2-17.7,9.6-20.3
		c1.4-2.5,0.4-3.3,2.5-6.3c1.5-9.4,8.8-18.1,10.3-20.3c1.5-2.2,3.1-10.8,10.8-9.8c7.6,0.9,8.9,5.8,9.3,6.9c0.9,0.6,2.6,3.4,2.6,7.6
		c0,4.3-3.2,13.3-5.4,18.5c-2.2,5.1-4.8,15.5-4.8,15.5"
        ></path>
	</g>
</svg>