<svg style="transform: translate(-30px, 5px)" xmlns="http://www.w3.org/2000/svg" >
  <g id="x" fill="none" stroke-width="1.5" stroke="gray">
        <path
          class="st1"
          d="M235.6,381c3.4-6.5,9.1-19,15-23.8s29.6-36.2,36.4-42.4s10.8-11.6,11-20.4c0.2-8.8,0-7.2,0.8-18
		c0.8-10.8,1.5-22.7,1.3-25.6c0.7-2,1.2-9.4,0-10.2c0.7-0.9,0.8-4.6-1.3-9.6c-2.1-5-1.2-8.5-2.1-11.4c0.5-3.1,3.1-17.4,1.3-23.3
		c-5.5-5.1-20.4,0.4-26.3,18.5s-3.7,25.8-1.5,27.8c-2.1,1.4-2.6,10-3.2,14.3c-0.6,4.3-1.3,8.1-0.8,9.1c-1.7,0.3-4,6.8-4,8.9
		c0,2.1-2.9-3.1-10.5-3.1c0.4-7.4-0.4-20.9,9.4-45.3c9.8-24.4,7.1-30.5,8.8-35.2c1.7-4.6,5.8-15,4.8-27.1c-1-12.1-6.3-17.6-12.2-18
		c-5.9-0.4-10.4,7.3-11.2,10.4c-0.9,3-2.4,17.3-4,21.5c-1.6,4.2-11.5,25.1-14.7,31s-11.2,28.2-12.7,29.1c-1.4,0.9-6.1-4-1.4-17.3
		c4.6-13.3,6.6-22.6,7.1-25.2c2.9-1.6,9.4-9.9,12.5-18.6c3.2-8.6,7.8-21.3,0.6-27.8c-7.2-6.5-14.8-1.6-17.1,1.9s-6.9,15.7-6.9,15.7
		s-6.6,2.2-12,8.6c-4,0.3-7,4.2-7,4.2s-3-1.7-8.8-0.6c0-3.7-2.3-25.5-15.4-24.4c-3.2-2.2-7.9,1.2-8.4,6.7
		c-0.5,5.4,0.5,23.3,0.6,25.5c-2.7,0.2-10.8,3.2-12.8,12.2c-2,9,0,40.2-0.6,49.3c-0.6,9.1-8.8,17-9.5,29.9
		c-0.7,12.9,1.6,48.7,2.5,56.1c0.9,7.4,0.6,30.4-9,46.4H235.6z"
        ></path>
        <path
          class="st2"
          d="M235.6,381c3.4-6.5,9.1-19,15-23.8s29.6-36.2,36.4-42.4s10.8-11.6,11-20.4c0.2-8.8,0-7.2,0.8-18
		c0.8-10.8,1.5-22.7,1.3-25.6c0.7-2,1.2-9.4,0-10.2c0.7-0.9,0.8-4.6-1.3-9.6c-2.1-5-1.2-8.5-2.1-11.4c0.5-3.1,3.1-17.4,1.3-23.3
		c-5.5-5.1-20.4,0.4-26.3,18.5s-3.7,25.8-1.5,27.8c-2.1,1.4-2.6,10-3.2,14.3c-0.6,4.3-1.3,8.1-0.8,9.1c-1.7,0.3-4,6.8-4,8.9
		c0,2.1-2.9-3.1-10.5-3.1c0.4-7.4-0.4-20.9,9.4-45.3c9.8-24.4,7.1-30.5,8.8-35.2c1.7-4.6,5.8-15,4.8-27.1c-1-12.1-6.3-17.6-12.2-18
		c-5.9-0.4-10.4,7.3-11.2,10.4c-0.9,3-2.4,17.3-4,21.5c-1.6,4.2-11.5,25.1-14.7,31s-11.2,28.2-12.7,29.1c-1.4,0.9-6.1-4-1.4-17.3
		c4.6-13.3,6.6-22.6,7.1-25.2c2.9-1.6,9.4-9.9,12.5-18.6c3.2-8.6,7.8-21.3,0.6-27.8c-7.2-6.5-14.8-1.6-17.1,1.9s-6.9,15.7-6.9,15.7
		s-6.6,2.2-12,8.6c-4,0.3-6.6,3.8-6.6,3.8s-3.4-1.3-9.2-0.2c0-3.7-2.3-25.5-15.4-24.4c-3.2-2.2-7.9,1.2-8.4,6.7
		c-0.5,5.4,0.5,23.3,0.6,25.5c-2.7,0.2-10.8,3.2-12.8,12.2c-2,9,0,40.2-0.6,49.3c-0.6,9.1-8.8,17-9.5,29.9
		c-0.7,12.9,1.6,48.7,2.5,56.1c0.9,7.4,0.6,30.4-9,46.4"
        ></path>
        <path
          stroke="#b600ef" stroke-width="1.5"
          d="M194.9,179.2c0,0,1.2-0.8-8.2,0.1s-10.7,5.7-15.1,6.1c-9.1,0.8-19,4.9-20.9,13.9c-2,9,0,40.2-0.6,49.3"
        ></path>
        <path
          class="st2"
          d="M170.3,244.3c3.5-3.7,7-5.9,9.9-21.9c2.9-16,9.2-29.5,10.1-33s4.4-9.8,7.7-11.9"
        ></path>
      </g>
</svg>