<svg style="transform: translate(0px, 5px)" xmlns="http://www.w3.org/2000/svg" >
  <g id="y" fill="none" stroke-width="1.5" stroke="gray">
        <path
          class="st1"
          d="M364.8,380c-1-2-2.7-5-5.3-8.4c-3.6-4.7-6-6.3-10.3-10.8c-4.1-4.4-6.7-7.9-9.9-12.4c-2.3-3.2-2.6-4-10-16.2
		c-9.1-15.1-13.6-22.6-14.8-24.1c-0.6-0.7-2.1-2.4-3.3-5.1c-1.3-3-1.5-5.6-1.8-9c-0.4-5.7-0.6-8.6-0.7-11.8
		c-0.2-4.4-0.9-8.1-2.1-15.7c-0.7-4.5-1.5-8.5-2.5-15.9c-0.1-0.4-0.1-1-0.2-1.8c-0.4-2.4-0.9-2.6-1-4.1c-0.1-1.2,0.3-1.4,0.1-2.7
		c-0.1-1-0.3-1.6-0.4-2c-0.5-1.8,0.3-3.5,0.9-5c1.1-2.6,6-10,13.6-19.4c-1-2.5-2.3-6-3.7-10.2c-1.8-5.4-4.2-12.6-6.1-21.6
		c-1.6-7.8-0.9-7.6-2.9-17.3c-1.2-5.9-1.7-7-2.6-12.4c-1.5-8.7-1.4-12.8-1.3-15.4c0.4-5.6,1.5-8.5,2-9.6c1.1-2.5,2.6-5.8,6-7.4
		c2.7-1.2,5.3-0.8,6.7-0.5c5.1,0.9,8.2,4.3,9.4,5.6c3.3,3.5,4.4,7.4,5.1,9.7c0.5,1.6,0.8,3.2,1.2,5.2c0.7,3.2,0.8,4.6,1.1,6.6
		c1,5.7,2.8,10,3.8,12.4c0.6,1.5,1.6,3.4,3.6,7.2c4.2,8,4.2,7.6,6,11.3c2.6,5.2,4.4,9.5,6.7,15.3c0.2,0.4,2.1,5.3,2.8,7
		c1.2,3.1,1.8,4.5,3.3,5.4c0.2,0.1,2.5,1.3,4.3,0c0.8-0.5,1-1.4,1.6-3c0.6-1.7,0.8-3.1,0.8-3.3c0.5-3.9,0.3-8.9,0.2-10.1
		c0.4-7.1,0-12.6-0.4-16.4c-0.5-4.5-0.2-9.1-1.2-13.5c-0.2-0.8-0.6-2.7-0.2-5c0.5-2.5,1.7-4.3,2.4-5.2c3.6-4.9,9.6-7,10.9-7.5
		c0.5-0.2,11.5-3.6,21.6,2.4c1.2,0.7,2,2.1,2.7,1.9c4.7-1.4,11,0.8,17.2,3.5c3.9,1.8,7.7,3.8,10.9,5.3c0.9,0,6,1,10.3,5
		c-1.1-1-0.3-3.6,0.2-6.2c0.4-2.2,1.2-3.8,1.3-4.2c1.7-3.5,4.3-5.7,6-6.8c0.5-0.6,1.3-1.5,2.5-2.2c0.8-0.5,2.6-1.6,4.7-1.3
		c1.8,0.2,2.9,1.3,4.2,2.5c2.3,2.2,3.2,4.8,3.6,6c0.4,1.1,0.6,2,0.7,2.7c0.7,1,1.6,2.4,2.5,4.1c2.5,4.6,3.7,8.4,4.1,9.9
		c1,3.4,1.3,6,2,11.4c0.7,5.5,0.2,5.3,0.8,8.8c0.8,4.3,1.6,5.3,1.9,9.1c0.2,2.5,0.1,4.2-0.1,6.8c-0.1,1.9-0.4,4.1-1.8,11.9
		c-0.9,4.8-1.3,7.2-2,10.1c-1,4.3-2,8-2.8,10.8c-0.1,1.6-0.2,3.9-0.3,6.7c-0.5,11-0.8,16.5-1,18.6c-1.1,11.3-2.6,12.1-2.4,20.3
		c0.1,3.3,0.3,3.4,0.6,9.2c0.3,7.2,0.2,12.7,0.1,15c-0.3,10.1-1.2,11.3-1.1,20.1c0,4.9,0.3,8.6,0.4,9.6c0.6,7.5,1.9,13,3.1,18.6
		c1.4,6.3,2.1,9.4,3.6,13.5c2.3,6.2,5,11,7,14.2C440,379.9,402.4,379.9,364.8,380z"
        ></path>
        <path
          class="st2"
          d="M364.8,380c-1-2-2.7-5-5.3-8.4c-3.6-4.7-6-6.3-10.3-10.8c-4.1-4.4-6.7-7.9-9.9-12.4c-2.3-3.2-2.6-4-10-16.2
		c-9.1-15.1-13.6-22.6-14.8-24.1c-0.6-0.7-2.1-2.4-3.3-5.1c-1.3-3-1.5-5.6-1.8-9c-0.4-5.7-0.6-8.6-0.7-11.8
		c-0.2-4.4-0.9-8.1-2.1-15.7c-0.7-4.5-1.5-8.5-2.5-15.9c-0.1-0.4-0.1-1-0.2-1.8c-0.4-2.4-0.9-2.6-1-4.1c-0.1-1.2,0.3-1.4,0.1-2.7
		c-0.1-1-0.3-1.6-0.4-2c-0.5-1.8,0.3-3.5,0.9-5c1.1-2.6,6-10,13.6-19.4"
        ></path>
        <path
          class="st2"
          d="M361.2,207.3c0.5-0.1,1.1-0.2,1.6-0.6c0.8-0.5,1-1.4,1.6-3c0.6-1.7,0.8-3.1,0.8-3.3c0.5-3.9,0.3-8.9,0.2-10.1
		c0.4-7.1,0-12.6-0.4-16.4c-0.5-4.5-0.2-9.1-1.2-13.5c-0.2-0.8-0.6-2.7-0.2-5c0.5-2.5,1.7-4.3,2.4-5.2c3.6-4.9,9.6-7.1,10.9-7.5
		c15.9-4.5,24.3,4.3,24.3,4.3c4.4-1.3,10.2-0.5,16.7,3.5c0.1,0.1,0.3,0.1,0.4,0.2c4.9,1.1,8.7,3.2,10.4,4.5c0.5,0.4,1,0.6,1.6,0.8
		c1.9,0.4,5.9,1.7,9.3,4.9c-1.1-1-0.3-3.6,0.2-6.2c0.4-2.2,1.2-3.8,1.3-4.2c1.7-3.5,4.3-5.7,6-6.8c0.5-0.6,1.3-1.5,2.5-2.2
		c0.8-0.5,2.5-1.6,4.6-1.3c0.4,0,0.9,0.2,1.3,0.4c4.6,2.4,6.1,6.5,6.6,8.2c0.4,1.1,0.6,2,0.7,2.7c0.7,1,1.6,2.4,2.5,4.1
		c2.5,4.6,3.7,8.4,4.1,9.9c1,3.4,1.3,6,2,11.4c0.7,5.5,0.2,5.3,0.8,8.8c0.8,4.3,1.6,5.3,1.9,9.1c0.2,2.5,0.1,4.2-0.1,6.8
		c-0.1,1.9-0.4,4.1-1.8,11.9c-0.9,4.8-1.3,7.2-2,10.1c-1,4.3-2,8-2.8,10.8c-0.1,1.6-0.2,3.9-0.3,6.7c-0.5,11-0.8,16.5-1,18.6
		c-1.1,11.3-2.6,12.1-2.4,20.3c0.1,3.3,0.3,3.4,0.6,9.2c0.3,7.2,0.2,12.7,0.1,15c-0.3,10.1-1.2,11.3-1.1,20.1c0,4.9,0.3,8.6,0.4,9.6
		c0.6,7.5,1.9,13,3.1,18.6c1.4,6.3,2.1,9.4,3.6,13.5c2.3,6.2,5,11,7,14.2"
        ></path>
        <path
          class="st2"
          d="M443.5,172c-0.1,0.9-0.2,1.9-0.4,3.6c-0.7,6.7-1,11.4-1.2,13.7c-0.3,3.9-0.9,9.5-2.1,16.8
		c0.6-4.1,0.7-9.1,2.8-14.2c0.3-0.8,0.7-1.5,1-2.3c-0.1-1.9-0.2-4.2,0-6.6c0.2-2.8,0.7-5.3,1.2-7.4c-1.9-5.3-3.8-10.5-5.6-15.8"
        ></path>
        <path
          class="st2"
          d="M411.2,212.5c-0.5-1.4-1.2-3.1-2.2-4.9c-0.7-1.3-1.5-2.4-2.3-3.4c-0.3-6.9-0.3-12.5-0.3-16.5
		c0-8.1-0.8-16.2,0-24.2c0.2-1.6,0.5-4.5-0.5-8.1c-1-3.8-3-6.5-4.4-8.2"
        ></path>
        <path
          class="st2"
          d="M322.7,289.3c0.3-2.5,0.8-4.5,1.4-6.1c1.9-5.4,3.7-9,5.2-11.7c0.8-1.4,0.2-3,0.1-5.8
		c-0.2-3.3-0.6-4.7-1.5-10.6c-0.8-4.9-1.2-7.3-1.4-9.1c-0.4-5.3,0.4-5.4,0-9.5c-0.2-1.6-0.5-3.1-0.8-4.4"
        ></path>
        <path
          stroke="#b600ef" stroke-width="1.5"
          d="M325.6,232.1c-0.7-2.8-1.7-5-2.4-6.6c-1.5-3.3-8.4-15.9-9.8-20.1c-1.8-5.4-4.2-12.6-6.1-21.6
		c-1.6-7.8-0.9-7.6-2.9-17.3c-1.2-5.9-1.7-7-2.6-12.4c-1.5-8.7-1.4-12.8-1.3-15.4c0.4-5.6,1.5-8.5,2-9.6c1.1-2.5,2.6-5.8,6-7.4
		c2.7-1.2,5.3-0.8,6.7-0.5c5.1,0.9,8.2,4.3,9.4,5.6c3.3,3.5,4.4,7.4,5.1,9.7c0.5,1.6,0.8,3.2,1.2,5.2c0.7,3.2,0.8,4.6,1.1,6.6
		c1,5.7,2.8,10,3.8,12.4c0.6,1.5,1.6,3.4,3.6,7.2c4.2,8,4.2,7.6,6,11.3c2.6,5.2,4.4,9.5,6.7,15.3c0.2,0.4,2.1,5.3,2.8,7
		c1.2,3.1,1.8,4.5,3.3,5.4c0.2,0.1,1.4,0.7,2.7,0.6"
        ></path>
      </g>
</svg>