<svg style="transform: translate(0px, 5px)" xmlns="http://www.w3.org/2000/svg" >
  <g id="neutral-right" fill="none" stroke-width="1.5" stroke="gray">
        <path
          class="st1"
          d="M483.3,379.3c-4.7-9.9-8-19.1-9.3-39.5s1.2-22,0-38.1c-1.2-16.1-2.4-12.6-1.2-24.7c1.1-12.1-5.5-27.8-5.6-33.7
		c-0.1-5.9,0.4-26.1-1.4-35.6c-1.8-9.5-6-15.6-9-31.9c-3-16.3-14.4-26.9-21.7-24.5s-8.5,10-7.6,12.8c-3.2-6.3-5.3-10-7.3-12.4
		c-2-2.4-7.8-5.2-7.8-5.2s-9-1.9-12.5,6.2c-2.9,0.6-2.9,6.9-2.8,8.6c-0.7-3.8-2-9.2-3.1-10.9c-1.2-1.7-3.5-4.4-6.7-5.8
		c-3.2-1.4-11.4-0.9-13.5,0.8c-2.1,1.7-5.9,5.2-5.6,8.6c0.3,3.5,1.4,6.6,1.6,15.5s3.1,27.7,3.7,32.4s8.7,48,8.7,48s-0.3,0.7-0.8,0.2
		c-0.4-0.5-9.9-53.3-13.3-61.1c1.3-8.3,2.1-31.8-3.3-37c-2.3-5.2-16.3-9.3-21.6,2.4c-5.3,11.6-3.6,32.4-4.6,40.4s0.1,25.8,1.1,31.1
		c-0.7-5.4-2.5-10.4-5.6-13.5s-8.2-6.2-11.8-7.5c-2.9-1-6.6,0.3-8.2,1.9c-0.5,0.5-1.2,1-1.9,1.1c-0.8,0.2-1.5,0.8-1.5,0.8
		c0,1.7,1.3,10.2,6,18.6c-1.2,1.8,0.4,9.3-0.9,14.6c-1.3,5.2-2.8,8.8-0.5,14.8c-0.9,1.6,0.3,6,2.3,7.6c-1.2,3.7,0.3,8.4,4.3,18.2
		c5,12.3,2.5,25.9,6,32.9s7.7,9.4,12.3,16.6c4.5,7.2,22.1,29.7,29.3,35.4s10.2,11.8,10.2,11.8H483.3z"
        ></path>
        <path
          class="st2"
          d="M483.3,379.3c-4.7-9.9-8-19.1-9.3-39.5s1.2-22,0-38.1c-1.2-16.1-2.4-12.6-1.2-24.7c1.1-12.1-5.5-27.8-5.6-33.7
		c-0.1-5.9,0.4-26.1-1.4-35.6c-1.8-9.5-4.5-16.5-9-31.9c-5-17.2-14.4-26.9-21.7-24.5s-8.5,10-7.6,12.8c-3.2-6.3-5.3-10-7.3-12.4
		c-1.5-1.8-5.6-4.9-9-5.4c-2.5-0.4-8.6,0.1-11.3,6.3c-2.6,0.9-2.9,6.9-2.8,8.6c-0.7-3.8-2-9.2-3.1-10.9c-1.2-1.7-3.5-4.4-6.7-5.8
		c-3.2-1.4-11.4-0.9-13.5,0.8c-2.1,1.7-5.9,5.2-5.6,8.6c0.3,3.5,1.4,6.6,1.6,15.5s3.1,27.7,3.7,32.4s8.7,48,8.7,48s-0.3,0.7-0.8,0.2
		c-0.4-0.5-9.9-53.3-13.3-61.1c1.3-8.3,2.1-31.8-3.3-37c-2.3-5.2-16.3-9.3-21.6,2.4c-5.3,11.6-3.6,32.4-4.6,40.4s0.1,25.8,1.1,31.1
		c-0.7-5.4-2.5-10.4-5.6-13.5s-8.2-6.2-11.8-7.5c-2.9-1-6.6,0.3-8.2,2c-0.6,0.6-1.4,1.2-2.3,1.3c-0.7,0.1-1.1,0.3-1.1,0.3
		c0,1.6,1.1,9.3,5,17c0.5,1,0.8,2.1,0.6,3.2c-0.4,2.9,0.6,8.9-0.5,13.2c-1.3,5.2-2.8,8.8-0.5,14.8c0.2,3.2,1.2,6.4,2.3,7.6
		c-0.3,4.3,0.3,8.4,4.3,18.2c5,12.3,2.5,25.9,6,32.9s7.7,9.4,12.3,16.6c4.5,7.2,22.1,29.7,29.3,35.4s10.2,11.8,10.2,11.8"
        ></path>
        <path
          class="st2"
          d="M343.1,310.4c0.3-5.1,2.6-13.8,2.8-16.9c0.3-3.1-0.6,1.3-0.8-12.1c-0.1-13.5-1.3-34.7-3.5-44.2
		c-2.2-9.5-1.6-11.4-2.6-14.8"
        ></path>
        <path
          class="st2"
          d="M416.4,241.2c-2.2-3.3-4.7-9.1-5-24.5s-4.9-19.1-5.2-29.7s-7.9-14-9.2-25.6"
        ></path>
        <path
          class="st2"
          d="M443.4,237.4c0.1-3.8,0.2-23-1.8-34.5c-2-11.5-4-15.9-6.4-21c-2.5-5.2-6.7-13.1-7.9-17.7"
        ></path>
  </g>
</svg>